M48
; DRILL file {KiCad 5.1.9+dfsg1-1~bpo10+1} date Thu Apr  4 13:03:38 2024
; FORMAT={-:-/ absolute / inch / decimal}
; #@! TF.CreationDate,2024-04-04T13:03:38+02:00
; #@! TF.GenerationSoftware,Kicad,Pcbnew,5.1.9+dfsg1-1~bpo10+1
; #@! TF.FileFunction,Plated,1,4,PTH
FMAT,2
INCH
T1C0.0118
T2C0.0157
T3C0.0197
T4C0.0217
T5C0.0350
T6C0.0354
T7C0.0394
T8C0.0421
T9C0.0630
T10C0.1138
%
G90
G05
T1
X4.6063Y-5.1476
X4.6063Y-5.187
X4.626Y-5.128
X4.626Y-5.1673
X4.626Y-5.2067
X4.7244Y-5.1083
X4.7441Y-5.0886
X4.7638Y-5.0689
X4.7638Y-5.4429
X4.7638Y-5.5807
X4.7835Y-5.0492
X4.7835Y-5.4626
X4.8091Y-4.8327
X4.8228Y-5.2756
X4.8287Y-4.813
X4.8425Y-5.2559
X4.8484Y-4.7933
X4.8681Y-4.7736
X4.8878Y-4.7539
X4.9016Y-5.6398
X4.9075Y-5.0
X4.9272Y-4.9803
X4.9469Y-4.9606
X4.9665Y-4.9409
X4.9862Y-4.8425
X4.9862Y-5.3937
X5.0059Y-4.9409
X5.0854Y-5.3823
X5.1083Y-5.4728
X5.1772Y-5.128
X5.1772Y-5.6398
X5.1831Y-5.2894
X5.1831Y-5.3406
X5.1969Y-5.0886
X5.2165Y-5.1083
X5.2362Y-4.8957
X5.2362Y-5.1673
X5.2559Y-5.1083
X5.2756Y-5.128
X5.2756Y-5.4429
X5.2953Y-5.1673
X5.315Y-5.1476
X5.3701Y-4.7835
X5.374Y-4.7047
X5.4055Y-5.5098
X5.4429Y-4.7835
X5.4528Y-4.9902
X5.5177Y-5.0079
X5.561Y-5.2264
X5.6004Y-5.0689
X5.6201Y-5.0492
X5.6791Y-4.7933
X5.6791Y-4.9862
X5.6988Y-4.6457
X5.7185Y-4.6654
X5.7382Y-4.685
X5.9252Y-4.7638
X5.9882Y-4.7461
X6.1323Y-5.2165
X6.1417Y-4.8425
X6.1732Y-4.8228
X6.2008Y-5.0866
X6.2362Y-4.8228
X6.2362Y-5.2953
X6.2677Y-4.9409
X6.2992Y-4.8228
X6.3307Y-4.9508
X6.3622Y-4.8228
X6.4252Y-4.8228
X6.4252Y-5.2953
X6.4961Y-4.8425
X6.5748Y-5.1811
X6.5945Y-5.1496
X6.5945Y-5.2598
X6.6142Y-5.5059
X7.0866Y-5.0492
X7.0866Y-5.3051
X7.372Y-4.8634
T2
X3.6211Y-5.4307
X3.6211Y-5.533
X3.6604Y-5.4307
X3.6604Y-5.533
X3.6998Y-5.4307
X3.6998Y-5.533
X3.7402Y-5.2215
X3.7402Y-5.3376
X3.7598Y-5.4154
X3.7795Y-5.5512
X3.9565Y-5.1476
X3.9565Y-5.6299
X4.0157Y-5.5512
X4.0354Y-5.4154
X4.0354Y-5.4724
X4.0805Y-5.3248
X4.2045Y-5.1476
X4.2872Y-5.3248
X4.3504Y-5.3248
X4.3602Y-5.1374
X4.3776Y-5.0197
X4.4488Y-5.0591
X4.4508Y-5.2657
X4.4531Y-4.9606
X4.548Y-5.0689
X4.5492Y-5.4626
X4.5669Y-4.8425
X4.5669Y-5.1181
X4.5858Y-5.0689
X4.6747Y-4.9409
X4.6843Y-4.8952
X4.685Y-5.3744
X4.75Y-5.4035
X4.7638Y-5.2362
X4.7697Y-5.2854
X4.7894Y-4.9508
X4.8031Y-5.1575
X4.8425Y-4.6663
X4.8681Y-5.3937
X4.8878Y-5.2854
X4.9114Y-5.2264
X4.937Y-5.4134
X4.9862Y-5.2854
X5.0098Y-5.4815
X5.0591Y-5.0295
X5.1575Y-4.872
X5.2075Y-5.0295
X5.2677Y-5.3799
X5.2854Y-4.7461
X5.2854Y-4.9902
X5.315Y-4.8425
X5.4823Y-4.8031
X5.5413Y-5.3839
X5.5807Y-5.3839
X5.6004Y-4.7933
X5.6185Y-5.3839
X5.7776Y-5.2894
X5.8268Y-4.9213
X5.8268Y-5.1083
X5.8465Y-4.8031
X5.9555Y-5.1575
X6.0256Y-5.4429
X6.063Y-4.9114
X6.1004Y-5.4429
X6.1319Y-5.1181
X6.2008Y-5.2756
X6.2047Y-4.9508
X6.25Y-4.7744
X6.3307Y-5.2854
X6.378Y-5.2165
X6.378Y-5.4618
X6.437Y-5.5315
X6.4665Y-5.0551
X6.5748Y-5.3346
X6.6142Y-5.2126
X6.6437Y-5.0929
X7.185Y-4.7835
X7.2941Y-4.9016
X7.3031Y-4.7047
X7.3327Y-4.9188
X7.3524Y-5.1772
X7.3524Y-5.2264
X7.3524Y-5.2756
X7.3524Y-5.3248
X7.3819Y-4.7835
T5
X7.5908Y-4.7526
X7.6908Y-4.6928
X7.9888Y-4.7526
X8.0888Y-4.6928
T6
X7.6648Y-5.2353
X7.7148Y-5.1353
X7.7648Y-5.2353
X7.8148Y-5.1353
X7.8648Y-5.2353
X7.9148Y-5.1353
X7.9648Y-5.2353
X8.0148Y-5.1353
T7
X6.7406Y-4.9543
X6.7406Y-5.0543
X6.7406Y-5.1543
X6.7406Y-5.2543
X6.7406Y-5.3543
X6.8406Y-4.9543
X6.8406Y-5.0543
X6.8406Y-5.1543
X6.8406Y-5.2543
X6.8406Y-5.3543
T8
X3.974Y-5.7055
X3.974Y-5.8055
X3.974Y-5.9055
X4.074Y-5.7055
X4.074Y-5.8055
X4.074Y-5.9055
X4.174Y-5.7055
X4.174Y-5.8055
X4.174Y-5.9055
X4.274Y-5.7055
X4.274Y-5.8055
X4.274Y-5.9055
X4.374Y-5.7055
X4.374Y-5.8055
X4.374Y-5.9055
X4.474Y-5.7055
X4.474Y-5.8055
X4.474Y-5.9055
X4.574Y-5.7055
X4.574Y-5.8055
X4.574Y-5.9055
X4.674Y-5.7055
X4.674Y-5.8055
X4.674Y-5.9055
X4.774Y-5.7055
X4.774Y-5.8055
X4.774Y-5.9055
X4.874Y-5.7055
X4.874Y-5.8055
X4.874Y-5.9055
X4.974Y-5.7055
X4.974Y-5.8055
X4.974Y-5.9055
X5.074Y-5.7055
X5.074Y-5.8055
X5.074Y-5.9055
X5.174Y-5.7055
X5.174Y-5.8055
X5.174Y-5.9055
X5.274Y-5.7055
X5.274Y-5.8055
X5.274Y-5.9055
X5.374Y-5.7055
X5.374Y-5.8055
X5.374Y-5.9055
X5.474Y-5.7055
X5.474Y-5.8055
X5.474Y-5.9055
X5.574Y-5.7055
X5.574Y-5.8055
X5.574Y-5.9055
X5.674Y-5.7055
X5.674Y-5.8055
X5.674Y-5.9055
X5.774Y-5.7055
X5.774Y-5.8055
X5.774Y-5.9055
X5.874Y-5.7055
X5.874Y-5.8055
X5.874Y-5.9055
X5.974Y-5.7055
X5.974Y-5.8055
X5.974Y-5.9055
X6.074Y-5.7055
X6.074Y-5.8055
X6.074Y-5.9055
X6.174Y-5.7055
X6.174Y-5.8055
X6.174Y-5.9055
X6.274Y-5.7055
X6.274Y-5.8055
X6.274Y-5.9055
X6.374Y-5.7055
X6.374Y-5.8055
X6.374Y-5.9055
X6.474Y-5.7055
X6.474Y-5.8055
X6.474Y-5.9055
X6.574Y-5.7055
X6.574Y-5.8055
X6.574Y-5.9055
X6.674Y-5.7055
X6.674Y-5.8055
X6.674Y-5.9055
X6.774Y-5.7055
X6.774Y-5.8055
X6.774Y-5.9055
X6.874Y-5.7055
X6.874Y-5.8055
X6.874Y-5.9055
X6.974Y-5.7055
X6.974Y-5.8055
X6.974Y-5.9055
X7.074Y-5.7055
X7.074Y-5.8055
X7.074Y-5.9055
X7.174Y-5.7055
X7.174Y-5.8055
X7.174Y-5.9055
X7.274Y-5.7055
X7.274Y-5.8055
X7.274Y-5.9055
X7.374Y-5.7055
X7.374Y-5.8055
X7.374Y-5.9055
X7.474Y-5.7055
X7.474Y-5.8055
X7.474Y-5.9055
X7.574Y-5.7055
X7.574Y-5.8055
X7.574Y-5.9055
X7.674Y-5.7055
X7.674Y-5.8055
X7.674Y-5.9055
X7.774Y-5.7055
X7.774Y-5.8055
X7.774Y-5.9055
X7.874Y-5.7055
X7.874Y-5.8055
X7.874Y-5.9055
T9
X7.5337Y-5.0057
X8.1459Y-5.0057
T10
X3.774Y-6.0055
X8.074Y-6.0055
T3
G00X3.4547Y-5.3441
M15
G01X3.4291Y-5.3441
M16
G05
G00X3.4547Y-5.6197
M15
G01X3.4291Y-5.6197
M16
G05
T4
G00X3.5482Y-5.3775
M15
G01X3.5482Y-5.3893
M16
G05
G00X3.5482Y-5.5744
M15
G01X3.5482Y-5.5862
M16
G05
T0
M30
