%TF.GenerationSoftware,KiCad,Pcbnew,5.1.9+dfsg1-1~bpo10+1*%
%TF.CreationDate,2024-04-13T10:16:49+02:00*%
%TF.ProjectId,IIsiSEthernet,49497369-5345-4746-9865-726e65742e6b,rev?*%
%TF.SameCoordinates,Original*%
%TF.FileFunction,Legend,Top*%
%TF.FilePolarity,Positive*%
%FSLAX46Y46*%
G04 Gerber Fmt 4.6, Leading zero omitted, Abs format (unit mm)*
G04 Created by KiCad (PCBNEW 5.1.9+dfsg1-1~bpo10+1) date 2024-04-13 10:16:49*
%MOMM*%
%LPD*%
G01*
G04 APERTURE LIST*
%ADD10C,0.100000*%
%ADD11C,0.150000*%
%ADD12C,0.050000*%
%ADD13C,0.200000*%
%ADD14C,0.127000*%
%ADD15C,0.120000*%
%ADD16C,0.254000*%
G04 APERTURE END LIST*
D10*
X207709285Y-142322857D02*
X207673571Y-142394285D01*
X207602142Y-142430000D01*
X206959285Y-142430000D01*
X207709285Y-141930000D02*
X207673571Y-142001428D01*
X207637857Y-142037142D01*
X207566428Y-142072857D01*
X207352142Y-142072857D01*
X207280714Y-142037142D01*
X207245000Y-142001428D01*
X207209285Y-141930000D01*
X207209285Y-141822857D01*
X207245000Y-141751428D01*
X207280714Y-141715714D01*
X207352142Y-141680000D01*
X207566428Y-141680000D01*
X207637857Y-141715714D01*
X207673571Y-141751428D01*
X207709285Y-141822857D01*
X207709285Y-141930000D01*
X207209285Y-141430000D02*
X207709285Y-141287142D01*
X207352142Y-141144285D01*
X207709285Y-141001428D01*
X207209285Y-140858571D01*
X198759285Y-142721428D02*
X198009285Y-142721428D01*
X198366428Y-142721428D02*
X198366428Y-142292857D01*
X198759285Y-142292857D02*
X198009285Y-142292857D01*
X198759285Y-141935714D02*
X198259285Y-141935714D01*
X198009285Y-141935714D02*
X198045000Y-141971428D01*
X198080714Y-141935714D01*
X198045000Y-141900000D01*
X198009285Y-141935714D01*
X198080714Y-141935714D01*
X198259285Y-141257142D02*
X198866428Y-141257142D01*
X198937857Y-141292857D01*
X198973571Y-141328571D01*
X199009285Y-141400000D01*
X199009285Y-141507142D01*
X198973571Y-141578571D01*
X198723571Y-141257142D02*
X198759285Y-141328571D01*
X198759285Y-141471428D01*
X198723571Y-141542857D01*
X198687857Y-141578571D01*
X198616428Y-141614285D01*
X198402142Y-141614285D01*
X198330714Y-141578571D01*
X198295000Y-141542857D01*
X198259285Y-141471428D01*
X198259285Y-141328571D01*
X198295000Y-141257142D01*
X198759285Y-140900000D02*
X198009285Y-140900000D01*
X198759285Y-140578571D02*
X198366428Y-140578571D01*
X198295000Y-140614285D01*
X198259285Y-140685714D01*
X198259285Y-140792857D01*
X198295000Y-140864285D01*
X198330714Y-140900000D01*
D11*
X199931428Y-142912380D02*
X199598095Y-142436190D01*
X199360000Y-142912380D02*
X199360000Y-141912380D01*
X199740952Y-141912380D01*
X199836190Y-141960000D01*
X199883809Y-142007619D01*
X199931428Y-142102857D01*
X199931428Y-142245714D01*
X199883809Y-142340952D01*
X199836190Y-142388571D01*
X199740952Y-142436190D01*
X199360000Y-142436190D01*
X200550476Y-141912380D02*
X200740952Y-141912380D01*
X200836190Y-141960000D01*
X200931428Y-142055238D01*
X200979047Y-142245714D01*
X200979047Y-142579047D01*
X200931428Y-142769523D01*
X200836190Y-142864761D01*
X200740952Y-142912380D01*
X200550476Y-142912380D01*
X200455238Y-142864761D01*
X200360000Y-142769523D01*
X200312380Y-142579047D01*
X200312380Y-142245714D01*
X200360000Y-142055238D01*
X200455238Y-141960000D01*
X200550476Y-141912380D01*
X201407619Y-142912380D02*
X201407619Y-141912380D01*
X201740952Y-142626666D01*
X202074285Y-141912380D01*
X202074285Y-142912380D01*
X203312380Y-142912380D02*
X203312380Y-141912380D01*
X203312380Y-142293333D02*
X203407619Y-142245714D01*
X203598095Y-142245714D01*
X203693333Y-142293333D01*
X203740952Y-142340952D01*
X203788571Y-142436190D01*
X203788571Y-142721904D01*
X203740952Y-142817142D01*
X203693333Y-142864761D01*
X203598095Y-142912380D01*
X203407619Y-142912380D01*
X203312380Y-142864761D01*
X204645714Y-142912380D02*
X204645714Y-142388571D01*
X204598095Y-142293333D01*
X204502857Y-142245714D01*
X204312380Y-142245714D01*
X204217142Y-142293333D01*
X204645714Y-142864761D02*
X204550476Y-142912380D01*
X204312380Y-142912380D01*
X204217142Y-142864761D01*
X204169523Y-142769523D01*
X204169523Y-142674285D01*
X204217142Y-142579047D01*
X204312380Y-142531428D01*
X204550476Y-142531428D01*
X204645714Y-142483809D01*
X205121904Y-142245714D02*
X205121904Y-142912380D01*
X205121904Y-142340952D02*
X205169523Y-142293333D01*
X205264761Y-142245714D01*
X205407619Y-142245714D01*
X205502857Y-142293333D01*
X205550476Y-142388571D01*
X205550476Y-142912380D01*
X206026666Y-142912380D02*
X206026666Y-141912380D01*
X206121904Y-142531428D02*
X206407619Y-142912380D01*
X206407619Y-142245714D02*
X206026666Y-142626666D01*
D10*
X87607142Y-129751785D02*
X87607142Y-130358928D01*
X87642857Y-130430357D01*
X87678571Y-130466071D01*
X87750000Y-130501785D01*
X87892857Y-130501785D01*
X87964285Y-130466071D01*
X88000000Y-130430357D01*
X88035714Y-130358928D01*
X88035714Y-129751785D01*
X88357142Y-130466071D02*
X88464285Y-130501785D01*
X88642857Y-130501785D01*
X88714285Y-130466071D01*
X88750000Y-130430357D01*
X88785714Y-130358928D01*
X88785714Y-130287500D01*
X88750000Y-130216071D01*
X88714285Y-130180357D01*
X88642857Y-130144642D01*
X88500000Y-130108928D01*
X88428571Y-130073214D01*
X88392857Y-130037500D01*
X88357142Y-129966071D01*
X88357142Y-129894642D01*
X88392857Y-129823214D01*
X88428571Y-129787500D01*
X88500000Y-129751785D01*
X88678571Y-129751785D01*
X88785714Y-129787500D01*
X89357142Y-130108928D02*
X89464285Y-130144642D01*
X89500000Y-130180357D01*
X89535714Y-130251785D01*
X89535714Y-130358928D01*
X89500000Y-130430357D01*
X89464285Y-130466071D01*
X89392857Y-130501785D01*
X89107142Y-130501785D01*
X89107142Y-129751785D01*
X89357142Y-129751785D01*
X89428571Y-129787500D01*
X89464285Y-129823214D01*
X89500000Y-129894642D01*
X89500000Y-129966071D01*
X89464285Y-130037500D01*
X89428571Y-130073214D01*
X89357142Y-130108928D01*
X89107142Y-130108928D01*
X90428571Y-130501785D02*
X90428571Y-129751785D01*
X90714285Y-129751785D01*
X90785714Y-129787500D01*
X90821428Y-129823214D01*
X90857142Y-129894642D01*
X90857142Y-130001785D01*
X90821428Y-130073214D01*
X90785714Y-130108928D01*
X90714285Y-130144642D01*
X90428571Y-130144642D01*
X91285714Y-130501785D02*
X91214285Y-130466071D01*
X91178571Y-130430357D01*
X91142857Y-130358928D01*
X91142857Y-130144642D01*
X91178571Y-130073214D01*
X91214285Y-130037500D01*
X91285714Y-130001785D01*
X91392857Y-130001785D01*
X91464285Y-130037500D01*
X91500000Y-130073214D01*
X91535714Y-130144642D01*
X91535714Y-130358928D01*
X91500000Y-130430357D01*
X91464285Y-130466071D01*
X91392857Y-130501785D01*
X91285714Y-130501785D01*
X91785714Y-130001785D02*
X91928571Y-130501785D01*
X92071428Y-130144642D01*
X92214285Y-130501785D01*
X92357142Y-130001785D01*
X92928571Y-130466071D02*
X92857142Y-130501785D01*
X92714285Y-130501785D01*
X92642857Y-130466071D01*
X92607142Y-130394642D01*
X92607142Y-130108928D01*
X92642857Y-130037500D01*
X92714285Y-130001785D01*
X92857142Y-130001785D01*
X92928571Y-130037500D01*
X92964285Y-130108928D01*
X92964285Y-130180357D01*
X92607142Y-130251785D01*
X93285714Y-130501785D02*
X93285714Y-130001785D01*
X93285714Y-130144642D02*
X93321428Y-130073214D01*
X93357142Y-130037500D01*
X93428571Y-130001785D01*
X93500000Y-130001785D01*
X88232142Y-131226785D02*
X88517857Y-131226785D01*
X88339285Y-131726785D02*
X88339285Y-131083928D01*
X88375000Y-131012500D01*
X88446428Y-130976785D01*
X88517857Y-130976785D01*
X88875000Y-131726785D02*
X88803571Y-131691071D01*
X88767857Y-131655357D01*
X88732142Y-131583928D01*
X88732142Y-131369642D01*
X88767857Y-131298214D01*
X88803571Y-131262500D01*
X88875000Y-131226785D01*
X88982142Y-131226785D01*
X89053571Y-131262500D01*
X89089285Y-131298214D01*
X89125000Y-131369642D01*
X89125000Y-131583928D01*
X89089285Y-131655357D01*
X89053571Y-131691071D01*
X88982142Y-131726785D01*
X88875000Y-131726785D01*
X89446428Y-131726785D02*
X89446428Y-131226785D01*
X89446428Y-131369642D02*
X89482142Y-131298214D01*
X89517857Y-131262500D01*
X89589285Y-131226785D01*
X89660714Y-131226785D01*
X90696428Y-130976785D02*
X90696428Y-131512500D01*
X90660714Y-131619642D01*
X90589285Y-131691071D01*
X90482142Y-131726785D01*
X90410714Y-131726785D01*
X90946428Y-130976785D02*
X91375000Y-130976785D01*
X91160714Y-131726785D02*
X91160714Y-130976785D01*
X91589285Y-131512500D02*
X91946428Y-131512500D01*
X91517857Y-131726785D02*
X91767857Y-130976785D01*
X92017857Y-131726785D01*
X92660714Y-131012500D02*
X92589285Y-130976785D01*
X92482142Y-130976785D01*
X92375000Y-131012500D01*
X92303571Y-131083928D01*
X92267857Y-131155357D01*
X92232142Y-131298214D01*
X92232142Y-131405357D01*
X92267857Y-131548214D01*
X92303571Y-131619642D01*
X92375000Y-131691071D01*
X92482142Y-131726785D01*
X92553571Y-131726785D01*
X92660714Y-131691071D01*
X92696428Y-131655357D01*
X92696428Y-131405357D01*
X92553571Y-131405357D01*
X87000000Y-132451785D02*
X87000000Y-133201785D01*
X87000000Y-132487500D02*
X87071428Y-132451785D01*
X87214285Y-132451785D01*
X87285714Y-132487500D01*
X87321428Y-132523214D01*
X87357142Y-132594642D01*
X87357142Y-132808928D01*
X87321428Y-132880357D01*
X87285714Y-132916071D01*
X87214285Y-132951785D01*
X87071428Y-132951785D01*
X87000000Y-132916071D01*
X87678571Y-132951785D02*
X87678571Y-132451785D01*
X87678571Y-132594642D02*
X87714285Y-132523214D01*
X87750000Y-132487500D01*
X87821428Y-132451785D01*
X87892857Y-132451785D01*
X88250000Y-132951785D02*
X88178571Y-132916071D01*
X88142857Y-132880357D01*
X88107142Y-132808928D01*
X88107142Y-132594642D01*
X88142857Y-132523214D01*
X88178571Y-132487500D01*
X88250000Y-132451785D01*
X88357142Y-132451785D01*
X88428571Y-132487500D01*
X88464285Y-132523214D01*
X88500000Y-132594642D01*
X88500000Y-132808928D01*
X88464285Y-132880357D01*
X88428571Y-132916071D01*
X88357142Y-132951785D01*
X88250000Y-132951785D01*
X89142857Y-132451785D02*
X89142857Y-133058928D01*
X89107142Y-133130357D01*
X89071428Y-133166071D01*
X89000000Y-133201785D01*
X88892857Y-133201785D01*
X88821428Y-133166071D01*
X89142857Y-132916071D02*
X89071428Y-132951785D01*
X88928571Y-132951785D01*
X88857142Y-132916071D01*
X88821428Y-132880357D01*
X88785714Y-132808928D01*
X88785714Y-132594642D01*
X88821428Y-132523214D01*
X88857142Y-132487500D01*
X88928571Y-132451785D01*
X89071428Y-132451785D01*
X89142857Y-132487500D01*
X89500000Y-132951785D02*
X89500000Y-132451785D01*
X89500000Y-132594642D02*
X89535714Y-132523214D01*
X89571428Y-132487500D01*
X89642857Y-132451785D01*
X89714285Y-132451785D01*
X90285714Y-132951785D02*
X90285714Y-132558928D01*
X90250000Y-132487500D01*
X90178571Y-132451785D01*
X90035714Y-132451785D01*
X89964285Y-132487500D01*
X90285714Y-132916071D02*
X90214285Y-132951785D01*
X90035714Y-132951785D01*
X89964285Y-132916071D01*
X89928571Y-132844642D01*
X89928571Y-132773214D01*
X89964285Y-132701785D01*
X90035714Y-132666071D01*
X90214285Y-132666071D01*
X90285714Y-132630357D01*
X90642857Y-132951785D02*
X90642857Y-132451785D01*
X90642857Y-132523214D02*
X90678571Y-132487500D01*
X90750000Y-132451785D01*
X90857142Y-132451785D01*
X90928571Y-132487500D01*
X90964285Y-132558928D01*
X90964285Y-132951785D01*
X90964285Y-132558928D02*
X91000000Y-132487500D01*
X91071428Y-132451785D01*
X91178571Y-132451785D01*
X91250000Y-132487500D01*
X91285714Y-132558928D01*
X91285714Y-132951785D01*
X91642857Y-132951785D02*
X91642857Y-132451785D01*
X91642857Y-132523214D02*
X91678571Y-132487500D01*
X91750000Y-132451785D01*
X91857142Y-132451785D01*
X91928571Y-132487500D01*
X91964285Y-132558928D01*
X91964285Y-132951785D01*
X91964285Y-132558928D02*
X92000000Y-132487500D01*
X92071428Y-132451785D01*
X92178571Y-132451785D01*
X92250000Y-132487500D01*
X92285714Y-132558928D01*
X92285714Y-132951785D01*
X92642857Y-132951785D02*
X92642857Y-132451785D01*
X92642857Y-132201785D02*
X92607142Y-132237500D01*
X92642857Y-132273214D01*
X92678571Y-132237500D01*
X92642857Y-132201785D01*
X92642857Y-132273214D01*
X93000000Y-132451785D02*
X93000000Y-132951785D01*
X93000000Y-132523214D02*
X93035714Y-132487500D01*
X93107142Y-132451785D01*
X93214285Y-132451785D01*
X93285714Y-132487500D01*
X93321428Y-132558928D01*
X93321428Y-132951785D01*
X94000000Y-132451785D02*
X94000000Y-133058928D01*
X93964285Y-133130357D01*
X93928571Y-133166071D01*
X93857142Y-133201785D01*
X93750000Y-133201785D01*
X93678571Y-133166071D01*
X94000000Y-132916071D02*
X93928571Y-132951785D01*
X93785714Y-132951785D01*
X93714285Y-132916071D01*
X93678571Y-132880357D01*
X93642857Y-132808928D01*
X93642857Y-132594642D01*
X93678571Y-132523214D01*
X93714285Y-132487500D01*
X93785714Y-132451785D01*
X93928571Y-132451785D01*
X94000000Y-132487500D01*
X89089285Y-134176785D02*
X89017857Y-134141071D01*
X88982142Y-134105357D01*
X88946428Y-134033928D01*
X88946428Y-133819642D01*
X88982142Y-133748214D01*
X89017857Y-133712500D01*
X89089285Y-133676785D01*
X89196428Y-133676785D01*
X89267857Y-133712500D01*
X89303571Y-133748214D01*
X89339285Y-133819642D01*
X89339285Y-134033928D01*
X89303571Y-134105357D01*
X89267857Y-134141071D01*
X89196428Y-134176785D01*
X89089285Y-134176785D01*
X89660714Y-133676785D02*
X89660714Y-134176785D01*
X89660714Y-133748214D02*
X89696428Y-133712500D01*
X89767857Y-133676785D01*
X89875000Y-133676785D01*
X89946428Y-133712500D01*
X89982142Y-133783928D01*
X89982142Y-134176785D01*
X90446428Y-134176785D02*
X90375000Y-134141071D01*
X90339285Y-134069642D01*
X90339285Y-133426785D01*
X90660714Y-133676785D02*
X90839285Y-134176785D01*
X91017857Y-133676785D02*
X90839285Y-134176785D01*
X90767857Y-134355357D01*
X90732142Y-134391071D01*
X90660714Y-134426785D01*
X91303571Y-134105357D02*
X91339285Y-134141071D01*
X91303571Y-134176785D01*
X91267857Y-134141071D01*
X91303571Y-134105357D01*
X91303571Y-134176785D01*
X91303571Y-133891071D02*
X91267857Y-133462500D01*
X91303571Y-133426785D01*
X91339285Y-133462500D01*
X91303571Y-133891071D01*
X91303571Y-133426785D01*
X91660714Y-134105357D02*
X91696428Y-134141071D01*
X91660714Y-134176785D01*
X91625000Y-134141071D01*
X91660714Y-134105357D01*
X91660714Y-134176785D01*
X91660714Y-133891071D02*
X91625000Y-133462500D01*
X91660714Y-133426785D01*
X91696428Y-133462500D01*
X91660714Y-133891071D01*
X91660714Y-133426785D01*
X92017857Y-134105357D02*
X92053571Y-134141071D01*
X92017857Y-134176785D01*
X91982142Y-134141071D01*
X92017857Y-134105357D01*
X92017857Y-134176785D01*
X92017857Y-133891071D02*
X91982142Y-133462500D01*
X92017857Y-133426785D01*
X92053571Y-133462500D01*
X92017857Y-133891071D01*
X92017857Y-133426785D01*
D11*
X138094285Y-135739285D02*
X137665714Y-135739285D01*
X137880000Y-135739285D02*
X137880000Y-134989285D01*
X137808571Y-135096428D01*
X137737142Y-135167857D01*
X137665714Y-135203571D01*
D12*
X169212857Y-131469627D02*
X169546190Y-131511294D01*
X169260476Y-131475580D02*
X169236666Y-131448794D01*
X169212857Y-131398199D01*
X169212857Y-131326770D01*
X169236666Y-131282127D01*
X169284285Y-131264270D01*
X169546190Y-131297008D01*
X169022380Y-130636294D02*
X169665238Y-131145223D01*
X169522380Y-130317842D02*
X169546190Y-130368437D01*
X169546190Y-130463675D01*
X169522380Y-130508318D01*
X169498571Y-130529151D01*
X169450952Y-130547008D01*
X169308095Y-130529151D01*
X169260476Y-130499389D01*
X169236666Y-130472604D01*
X169212857Y-130422008D01*
X169212857Y-130326770D01*
X169236666Y-130282127D01*
X169192857Y-128959627D02*
X169526190Y-129001294D01*
X169240476Y-128965580D02*
X169216666Y-128938794D01*
X169192857Y-128888199D01*
X169192857Y-128816770D01*
X169216666Y-128772127D01*
X169264285Y-128754270D01*
X169526190Y-128787008D01*
X169002380Y-128126294D02*
X169645238Y-128635223D01*
X169502380Y-127807842D02*
X169526190Y-127858437D01*
X169526190Y-127953675D01*
X169502380Y-127998318D01*
X169478571Y-128019151D01*
X169430952Y-128037008D01*
X169288095Y-128019151D01*
X169240476Y-127989389D01*
X169216666Y-127962604D01*
X169192857Y-127912008D01*
X169192857Y-127816770D01*
X169216666Y-127772127D01*
X175362857Y-128819627D02*
X175696190Y-128861294D01*
X175410476Y-128825580D02*
X175386666Y-128798794D01*
X175362857Y-128748199D01*
X175362857Y-128676770D01*
X175386666Y-128632127D01*
X175434285Y-128614270D01*
X175696190Y-128647008D01*
X175172380Y-127986294D02*
X175815238Y-128495223D01*
X175672380Y-127667842D02*
X175696190Y-127718437D01*
X175696190Y-127813675D01*
X175672380Y-127858318D01*
X175648571Y-127879151D01*
X175600952Y-127897008D01*
X175458095Y-127879151D01*
X175410476Y-127849389D01*
X175386666Y-127822604D01*
X175362857Y-127772008D01*
X175362857Y-127676770D01*
X175386666Y-127632127D01*
D10*
X169090000Y-136313452D02*
X169066190Y-136358095D01*
X169066190Y-136429523D01*
X169090000Y-136503928D01*
X169137619Y-136557500D01*
X169185238Y-136587261D01*
X169280476Y-136622976D01*
X169351904Y-136631904D01*
X169447142Y-136620000D01*
X169494761Y-136602142D01*
X169542380Y-136560476D01*
X169566190Y-136492023D01*
X169566190Y-136444404D01*
X169542380Y-136370000D01*
X169518571Y-136343214D01*
X169351904Y-136322380D01*
X169351904Y-136417619D01*
X169566190Y-136134880D02*
X169066190Y-136072380D01*
X169566190Y-135849166D01*
X169066190Y-135786666D01*
X169566190Y-135611071D02*
X169066190Y-135548571D01*
X169066190Y-135429523D01*
X169090000Y-135361071D01*
X169137619Y-135319404D01*
X169185238Y-135301547D01*
X169280476Y-135289642D01*
X169351904Y-135298571D01*
X169447142Y-135334285D01*
X169494761Y-135364047D01*
X169542380Y-135417619D01*
X169566190Y-135492023D01*
X169566190Y-135611071D01*
X169050000Y-126033452D02*
X169026190Y-126078095D01*
X169026190Y-126149523D01*
X169050000Y-126223928D01*
X169097619Y-126277500D01*
X169145238Y-126307261D01*
X169240476Y-126342976D01*
X169311904Y-126351904D01*
X169407142Y-126340000D01*
X169454761Y-126322142D01*
X169502380Y-126280476D01*
X169526190Y-126212023D01*
X169526190Y-126164404D01*
X169502380Y-126090000D01*
X169478571Y-126063214D01*
X169311904Y-126042380D01*
X169311904Y-126137619D01*
X169526190Y-125854880D02*
X169026190Y-125792380D01*
X169526190Y-125569166D01*
X169026190Y-125506666D01*
X169526190Y-125331071D02*
X169026190Y-125268571D01*
X169026190Y-125149523D01*
X169050000Y-125081071D01*
X169097619Y-125039404D01*
X169145238Y-125021547D01*
X169240476Y-125009642D01*
X169311904Y-125018571D01*
X169407142Y-125054285D01*
X169454761Y-125084047D01*
X169502380Y-125137619D01*
X169526190Y-125212023D01*
X169526190Y-125331071D01*
X169026190Y-134086190D02*
X169526190Y-133982023D01*
X169026190Y-133752857D01*
X169526190Y-133648690D02*
X169026190Y-133586190D01*
X169026190Y-133467142D01*
X169050000Y-133398690D01*
X169097619Y-133357023D01*
X169145238Y-133339166D01*
X169240476Y-133327261D01*
X169311904Y-133336190D01*
X169407142Y-133371904D01*
X169454761Y-133401666D01*
X169502380Y-133455238D01*
X169526190Y-133529642D01*
X169526190Y-133648690D01*
X169526190Y-133148690D02*
X169026190Y-133086190D01*
X169026190Y-132967142D01*
X169050000Y-132898690D01*
X169097619Y-132857023D01*
X169145238Y-132839166D01*
X169240476Y-132827261D01*
X169311904Y-132836190D01*
X169407142Y-132871904D01*
X169454761Y-132901666D01*
X169502380Y-132955238D01*
X169526190Y-133029642D01*
X169526190Y-133148690D01*
X175366190Y-136612380D02*
X175366190Y-136326666D01*
X175866190Y-136532023D02*
X175366190Y-136469523D01*
X175818571Y-135930833D02*
X175842380Y-135957619D01*
X175866190Y-136032023D01*
X175866190Y-136079642D01*
X175842380Y-136148095D01*
X175794761Y-136189761D01*
X175747142Y-136207619D01*
X175651904Y-136219523D01*
X175580476Y-136210595D01*
X175485238Y-136174880D01*
X175437619Y-136145119D01*
X175390000Y-136091547D01*
X175366190Y-136017142D01*
X175366190Y-135969523D01*
X175390000Y-135901071D01*
X175413809Y-135880238D01*
X175866190Y-135722500D02*
X175366190Y-135660000D01*
X175866190Y-135436785D02*
X175580476Y-135615357D01*
X175366190Y-135374285D02*
X175651904Y-135695714D01*
X175346190Y-126241428D02*
X175346190Y-125955714D01*
X175846190Y-126161071D02*
X175346190Y-126098571D01*
X175846190Y-125851547D02*
X175346190Y-125789047D01*
X175346190Y-125670000D01*
X175370000Y-125601547D01*
X175417619Y-125559880D01*
X175465238Y-125542023D01*
X175560476Y-125530119D01*
X175631904Y-125539047D01*
X175727142Y-125574761D01*
X175774761Y-125604523D01*
X175822380Y-125658095D01*
X175846190Y-125732500D01*
X175846190Y-125851547D01*
X175846190Y-125351547D02*
X175346190Y-125289047D01*
X175366190Y-134024285D02*
X175366190Y-133738571D01*
X175866190Y-133943928D02*
X175366190Y-133881428D01*
X175866190Y-133634404D02*
X175366190Y-133571904D01*
X175366190Y-133452857D01*
X175390000Y-133384404D01*
X175437619Y-133342738D01*
X175485238Y-133324880D01*
X175580476Y-133312976D01*
X175651904Y-133321904D01*
X175747142Y-133357619D01*
X175794761Y-133387380D01*
X175842380Y-133440952D01*
X175866190Y-133515357D01*
X175866190Y-133634404D01*
X175366190Y-132976666D02*
X175366190Y-132881428D01*
X175390000Y-132836785D01*
X175437619Y-132795119D01*
X175532857Y-132783214D01*
X175699523Y-132804047D01*
X175794761Y-132839761D01*
X175842380Y-132893333D01*
X175866190Y-132943928D01*
X175866190Y-133039166D01*
X175842380Y-133083809D01*
X175794761Y-133125476D01*
X175699523Y-133137380D01*
X175532857Y-133116547D01*
X175437619Y-133080833D01*
X175390000Y-133027261D01*
X175366190Y-132976666D01*
X175376190Y-131536190D02*
X175376190Y-131250476D01*
X175876190Y-131455833D02*
X175376190Y-131393333D01*
X175876190Y-131146309D02*
X175376190Y-131083809D01*
X175733333Y-130961785D01*
X175376190Y-130750476D01*
X175876190Y-130812976D01*
X175852380Y-130595714D02*
X175876190Y-130527261D01*
X175876190Y-130408214D01*
X175852380Y-130357619D01*
X175828571Y-130330833D01*
X175780952Y-130301071D01*
X175733333Y-130295119D01*
X175685714Y-130312976D01*
X175661904Y-130333809D01*
X175638095Y-130378452D01*
X175614285Y-130470714D01*
X175590476Y-130515357D01*
X175566666Y-130536190D01*
X175519047Y-130554047D01*
X175471428Y-130548095D01*
X175423809Y-130518333D01*
X175400000Y-130491547D01*
X175376190Y-130440952D01*
X175376190Y-130321904D01*
X175400000Y-130253452D01*
D11*
X174139285Y-137965714D02*
X174139285Y-138394285D01*
X174139285Y-138180000D02*
X173389285Y-138180000D01*
X173496428Y-138251428D01*
X173567857Y-138322857D01*
X173603571Y-138394285D01*
X99854285Y-131389285D02*
X99425714Y-131389285D01*
X99640000Y-131389285D02*
X99640000Y-130639285D01*
X99568571Y-130746428D01*
X99497142Y-130817857D01*
X99425714Y-130853571D01*
X165404285Y-123849285D02*
X164975714Y-123849285D01*
X165190000Y-123849285D02*
X165190000Y-123099285D01*
X165118571Y-123206428D01*
X165047142Y-123277857D01*
X164975714Y-123313571D01*
X111714285Y-133949285D02*
X111285714Y-133949285D01*
X111500000Y-133949285D02*
X111500000Y-133199285D01*
X111428571Y-133306428D01*
X111357142Y-133377857D01*
X111285714Y-133413571D01*
D10*
X184458571Y-139648571D02*
X184565714Y-139684285D01*
X184744285Y-139684285D01*
X184815714Y-139648571D01*
X184851428Y-139612857D01*
X184887142Y-139541428D01*
X184887142Y-139470000D01*
X184851428Y-139398571D01*
X184815714Y-139362857D01*
X184744285Y-139327142D01*
X184601428Y-139291428D01*
X184530000Y-139255714D01*
X184494285Y-139220000D01*
X184458571Y-139148571D01*
X184458571Y-139077142D01*
X184494285Y-139005714D01*
X184530000Y-138970000D01*
X184601428Y-138934285D01*
X184780000Y-138934285D01*
X184887142Y-138970000D01*
X185172857Y-139005714D02*
X185208571Y-138970000D01*
X185280000Y-138934285D01*
X185458571Y-138934285D01*
X185530000Y-138970000D01*
X185565714Y-139005714D01*
X185601428Y-139077142D01*
X185601428Y-139148571D01*
X185565714Y-139255714D01*
X185137142Y-139684285D01*
X185601428Y-139684285D01*
X186101428Y-139934285D02*
X186101428Y-138862857D01*
X186601428Y-139648571D02*
X186708571Y-139684285D01*
X186887142Y-139684285D01*
X186958571Y-139648571D01*
X186994285Y-139612857D01*
X187030000Y-139541428D01*
X187030000Y-139470000D01*
X186994285Y-139398571D01*
X186958571Y-139362857D01*
X186887142Y-139327142D01*
X186744285Y-139291428D01*
X186672857Y-139255714D01*
X186637142Y-139220000D01*
X186601428Y-139148571D01*
X186601428Y-139077142D01*
X186637142Y-139005714D01*
X186672857Y-138970000D01*
X186744285Y-138934285D01*
X186922857Y-138934285D01*
X187030000Y-138970000D01*
X187744285Y-139684285D02*
X187315714Y-139684285D01*
X187530000Y-139684285D02*
X187530000Y-138934285D01*
X187458571Y-139041428D01*
X187387142Y-139112857D01*
X187315714Y-139148571D01*
X188065714Y-139612857D02*
X188101428Y-139648571D01*
X188065714Y-139684285D01*
X188030000Y-139648571D01*
X188065714Y-139612857D01*
X188065714Y-139684285D01*
X188065714Y-139220000D02*
X188101428Y-139255714D01*
X188065714Y-139291428D01*
X188030000Y-139255714D01*
X188065714Y-139220000D01*
X188065714Y-139291428D01*
X177530000Y-140159285D02*
X177601428Y-140159285D01*
X177672857Y-140195000D01*
X177708571Y-140230714D01*
X177744285Y-140302142D01*
X177780000Y-140445000D01*
X177780000Y-140623571D01*
X177744285Y-140766428D01*
X177708571Y-140837857D01*
X177672857Y-140873571D01*
X177601428Y-140909285D01*
X177530000Y-140909285D01*
X177458571Y-140873571D01*
X177422857Y-140837857D01*
X177387142Y-140766428D01*
X177351428Y-140623571D01*
X177351428Y-140445000D01*
X177387142Y-140302142D01*
X177422857Y-140230714D01*
X177458571Y-140195000D01*
X177530000Y-140159285D01*
X178280000Y-141159285D02*
X178280000Y-140087857D01*
X178958571Y-140159285D02*
X179030000Y-140159285D01*
X179101428Y-140195000D01*
X179137142Y-140230714D01*
X179172857Y-140302142D01*
X179208571Y-140445000D01*
X179208571Y-140623571D01*
X179172857Y-140766428D01*
X179137142Y-140837857D01*
X179101428Y-140873571D01*
X179030000Y-140909285D01*
X178958571Y-140909285D01*
X178887142Y-140873571D01*
X178851428Y-140837857D01*
X178815714Y-140766428D01*
X178780000Y-140623571D01*
X178780000Y-140445000D01*
X178815714Y-140302142D01*
X178851428Y-140230714D01*
X178887142Y-140195000D01*
X178958571Y-140159285D01*
X180101428Y-140516428D02*
X180672857Y-140516428D01*
X180672857Y-140730714D02*
X180101428Y-140730714D01*
X181030000Y-140409285D02*
X181601428Y-140623571D01*
X181030000Y-140837857D01*
X182494285Y-140873571D02*
X182601428Y-140909285D01*
X182780000Y-140909285D01*
X182851428Y-140873571D01*
X182887142Y-140837857D01*
X182922857Y-140766428D01*
X182922857Y-140695000D01*
X182887142Y-140623571D01*
X182851428Y-140587857D01*
X182780000Y-140552142D01*
X182637142Y-140516428D01*
X182565714Y-140480714D01*
X182530000Y-140445000D01*
X182494285Y-140373571D01*
X182494285Y-140302142D01*
X182530000Y-140230714D01*
X182565714Y-140195000D01*
X182637142Y-140159285D01*
X182815714Y-140159285D01*
X182922857Y-140195000D01*
X183351428Y-140909285D02*
X183280000Y-140873571D01*
X183244285Y-140802142D01*
X183244285Y-140159285D01*
X183744285Y-140909285D02*
X183672857Y-140873571D01*
X183637142Y-140837857D01*
X183601428Y-140766428D01*
X183601428Y-140552142D01*
X183637142Y-140480714D01*
X183672857Y-140445000D01*
X183744285Y-140409285D01*
X183851428Y-140409285D01*
X183922857Y-140445000D01*
X183958571Y-140480714D01*
X183994285Y-140552142D01*
X183994285Y-140766428D01*
X183958571Y-140837857D01*
X183922857Y-140873571D01*
X183851428Y-140909285D01*
X183744285Y-140909285D01*
X184208571Y-140409285D02*
X184494285Y-140409285D01*
X184315714Y-140159285D02*
X184315714Y-140802142D01*
X184351428Y-140873571D01*
X184422857Y-140909285D01*
X184494285Y-140909285D01*
X185351428Y-140909285D02*
X185494285Y-140909285D01*
X185565714Y-140873571D01*
X185601428Y-140837857D01*
X185672857Y-140730714D01*
X185708571Y-140587857D01*
X185708571Y-140302142D01*
X185672857Y-140230714D01*
X185637142Y-140195000D01*
X185565714Y-140159285D01*
X185422857Y-140159285D01*
X185351428Y-140195000D01*
X185315714Y-140230714D01*
X185280000Y-140302142D01*
X185280000Y-140480714D01*
X185315714Y-140552142D01*
X185351428Y-140587857D01*
X185422857Y-140623571D01*
X185565714Y-140623571D01*
X185637142Y-140587857D01*
X185672857Y-140552142D01*
X185708571Y-140480714D01*
X186065714Y-140873571D02*
X186065714Y-140909285D01*
X186030000Y-140980714D01*
X185994285Y-141016428D01*
X187101428Y-140159285D02*
X187172857Y-140159285D01*
X187244285Y-140195000D01*
X187280000Y-140230714D01*
X187315714Y-140302142D01*
X187351428Y-140445000D01*
X187351428Y-140623571D01*
X187315714Y-140766428D01*
X187280000Y-140837857D01*
X187244285Y-140873571D01*
X187172857Y-140909285D01*
X187101428Y-140909285D01*
X187030000Y-140873571D01*
X186994285Y-140837857D01*
X186958571Y-140766428D01*
X186922857Y-140623571D01*
X186922857Y-140445000D01*
X186958571Y-140302142D01*
X186994285Y-140230714D01*
X187030000Y-140195000D01*
X187101428Y-140159285D01*
X187851428Y-141159285D02*
X187851428Y-140087857D01*
X188780000Y-140909285D02*
X188351428Y-140909285D01*
X188565714Y-140909285D02*
X188565714Y-140159285D01*
X188494285Y-140266428D01*
X188422857Y-140337857D01*
X188351428Y-140373571D01*
X189672857Y-140516428D02*
X190244285Y-140516428D01*
X190244285Y-140730714D02*
X189672857Y-140730714D01*
X190601428Y-140409285D02*
X191172857Y-140623571D01*
X190601428Y-140837857D01*
X192065714Y-140873571D02*
X192172857Y-140909285D01*
X192351428Y-140909285D01*
X192422857Y-140873571D01*
X192458571Y-140837857D01*
X192494285Y-140766428D01*
X192494285Y-140695000D01*
X192458571Y-140623571D01*
X192422857Y-140587857D01*
X192351428Y-140552142D01*
X192208571Y-140516428D01*
X192137142Y-140480714D01*
X192101428Y-140445000D01*
X192065714Y-140373571D01*
X192065714Y-140302142D01*
X192101428Y-140230714D01*
X192137142Y-140195000D01*
X192208571Y-140159285D01*
X192387142Y-140159285D01*
X192494285Y-140195000D01*
X192922857Y-140909285D02*
X192851428Y-140873571D01*
X192815714Y-140802142D01*
X192815714Y-140159285D01*
X193315714Y-140909285D02*
X193244285Y-140873571D01*
X193208571Y-140837857D01*
X193172857Y-140766428D01*
X193172857Y-140552142D01*
X193208571Y-140480714D01*
X193244285Y-140445000D01*
X193315714Y-140409285D01*
X193422857Y-140409285D01*
X193494285Y-140445000D01*
X193530000Y-140480714D01*
X193565714Y-140552142D01*
X193565714Y-140766428D01*
X193530000Y-140837857D01*
X193494285Y-140873571D01*
X193422857Y-140909285D01*
X193315714Y-140909285D01*
X193780000Y-140409285D02*
X194065714Y-140409285D01*
X193887142Y-140159285D02*
X193887142Y-140802142D01*
X193922857Y-140873571D01*
X193994285Y-140909285D01*
X194065714Y-140909285D01*
X194851428Y-140695000D02*
X195208571Y-140695000D01*
X194780000Y-140909285D02*
X195030000Y-140159285D01*
X195280000Y-140909285D01*
X176280000Y-142134285D02*
X175851428Y-142134285D01*
X176065714Y-142134285D02*
X176065714Y-141384285D01*
X175994285Y-141491428D01*
X175922857Y-141562857D01*
X175851428Y-141598571D01*
X176780000Y-142384285D02*
X176780000Y-141312857D01*
X177458571Y-141384285D02*
X177530000Y-141384285D01*
X177601428Y-141420000D01*
X177637142Y-141455714D01*
X177672857Y-141527142D01*
X177708571Y-141670000D01*
X177708571Y-141848571D01*
X177672857Y-141991428D01*
X177637142Y-142062857D01*
X177601428Y-142098571D01*
X177530000Y-142134285D01*
X177458571Y-142134285D01*
X177387142Y-142098571D01*
X177351428Y-142062857D01*
X177315714Y-141991428D01*
X177280000Y-141848571D01*
X177280000Y-141670000D01*
X177315714Y-141527142D01*
X177351428Y-141455714D01*
X177387142Y-141420000D01*
X177458571Y-141384285D01*
X178601428Y-141741428D02*
X179172857Y-141741428D01*
X179172857Y-141955714D02*
X178601428Y-141955714D01*
X179530000Y-141634285D02*
X180101428Y-141848571D01*
X179530000Y-142062857D01*
X180994285Y-142098571D02*
X181101428Y-142134285D01*
X181280000Y-142134285D01*
X181351428Y-142098571D01*
X181387142Y-142062857D01*
X181422857Y-141991428D01*
X181422857Y-141920000D01*
X181387142Y-141848571D01*
X181351428Y-141812857D01*
X181280000Y-141777142D01*
X181137142Y-141741428D01*
X181065714Y-141705714D01*
X181030000Y-141670000D01*
X180994285Y-141598571D01*
X180994285Y-141527142D01*
X181030000Y-141455714D01*
X181065714Y-141420000D01*
X181137142Y-141384285D01*
X181315714Y-141384285D01*
X181422857Y-141420000D01*
X181851428Y-142134285D02*
X181780000Y-142098571D01*
X181744285Y-142027142D01*
X181744285Y-141384285D01*
X182244285Y-142134285D02*
X182172857Y-142098571D01*
X182137142Y-142062857D01*
X182101428Y-141991428D01*
X182101428Y-141777142D01*
X182137142Y-141705714D01*
X182172857Y-141670000D01*
X182244285Y-141634285D01*
X182351428Y-141634285D01*
X182422857Y-141670000D01*
X182458571Y-141705714D01*
X182494285Y-141777142D01*
X182494285Y-141991428D01*
X182458571Y-142062857D01*
X182422857Y-142098571D01*
X182351428Y-142134285D01*
X182244285Y-142134285D01*
X182708571Y-141634285D02*
X182994285Y-141634285D01*
X182815714Y-141384285D02*
X182815714Y-142027142D01*
X182851428Y-142098571D01*
X182922857Y-142134285D01*
X182994285Y-142134285D01*
X184065714Y-141741428D02*
X184172857Y-141777142D01*
X184208571Y-141812857D01*
X184244285Y-141884285D01*
X184244285Y-141991428D01*
X184208571Y-142062857D01*
X184172857Y-142098571D01*
X184101428Y-142134285D01*
X183815714Y-142134285D01*
X183815714Y-141384285D01*
X184065714Y-141384285D01*
X184137142Y-141420000D01*
X184172857Y-141455714D01*
X184208571Y-141527142D01*
X184208571Y-141598571D01*
X184172857Y-141670000D01*
X184137142Y-141705714D01*
X184065714Y-141741428D01*
X183815714Y-141741428D01*
X184601428Y-142098571D02*
X184601428Y-142134285D01*
X184565714Y-142205714D01*
X184530000Y-142241428D01*
X185887142Y-142134285D02*
X185458571Y-142134285D01*
X185672857Y-142134285D02*
X185672857Y-141384285D01*
X185601428Y-141491428D01*
X185530000Y-141562857D01*
X185458571Y-141598571D01*
X186387142Y-142384285D02*
X186387142Y-141312857D01*
X187315714Y-142134285D02*
X186887142Y-142134285D01*
X187101428Y-142134285D02*
X187101428Y-141384285D01*
X187030000Y-141491428D01*
X186958571Y-141562857D01*
X186887142Y-141598571D01*
X188208571Y-141741428D02*
X188780000Y-141741428D01*
X188780000Y-141955714D02*
X188208571Y-141955714D01*
X189137142Y-141634285D02*
X189708571Y-141848571D01*
X189137142Y-142062857D01*
X190601428Y-142098571D02*
X190708571Y-142134285D01*
X190887142Y-142134285D01*
X190958571Y-142098571D01*
X190994285Y-142062857D01*
X191030000Y-141991428D01*
X191030000Y-141920000D01*
X190994285Y-141848571D01*
X190958571Y-141812857D01*
X190887142Y-141777142D01*
X190744285Y-141741428D01*
X190672857Y-141705714D01*
X190637142Y-141670000D01*
X190601428Y-141598571D01*
X190601428Y-141527142D01*
X190637142Y-141455714D01*
X190672857Y-141420000D01*
X190744285Y-141384285D01*
X190922857Y-141384285D01*
X191030000Y-141420000D01*
X191458571Y-142134285D02*
X191387142Y-142098571D01*
X191351428Y-142027142D01*
X191351428Y-141384285D01*
X191851428Y-142134285D02*
X191780000Y-142098571D01*
X191744285Y-142062857D01*
X191708571Y-141991428D01*
X191708571Y-141777142D01*
X191744285Y-141705714D01*
X191780000Y-141670000D01*
X191851428Y-141634285D01*
X191958571Y-141634285D01*
X192030000Y-141670000D01*
X192065714Y-141705714D01*
X192101428Y-141777142D01*
X192101428Y-141991428D01*
X192065714Y-142062857D01*
X192030000Y-142098571D01*
X191958571Y-142134285D01*
X191851428Y-142134285D01*
X192315714Y-141634285D02*
X192601428Y-141634285D01*
X192422857Y-141384285D02*
X192422857Y-142027142D01*
X192458571Y-142098571D01*
X192530000Y-142134285D01*
X192601428Y-142134285D01*
X193422857Y-141741428D02*
X193672857Y-141741428D01*
X193780000Y-142134285D02*
X193422857Y-142134285D01*
X193422857Y-141384285D01*
X193780000Y-141384285D01*
X194887142Y-142420000D02*
X194851428Y-142384285D01*
X194780000Y-142277142D01*
X194744285Y-142205714D01*
X194708571Y-142098571D01*
X194672857Y-141920000D01*
X194672857Y-141777142D01*
X194708571Y-141598571D01*
X194744285Y-141491428D01*
X194780000Y-141420000D01*
X194851428Y-141312857D01*
X194887142Y-141277142D01*
X195422857Y-141741428D02*
X195172857Y-141741428D01*
X195172857Y-142134285D02*
X195172857Y-141384285D01*
X195530000Y-141384285D01*
X195744285Y-141384285D02*
X196244285Y-142134285D01*
X196244285Y-141384285D02*
X195744285Y-142134285D01*
X196458571Y-142420000D02*
X196494285Y-142384285D01*
X196565714Y-142277142D01*
X196601428Y-142205714D01*
X196637142Y-142098571D01*
X196672857Y-141920000D01*
X196672857Y-141777142D01*
X196637142Y-141598571D01*
X196601428Y-141491428D01*
X196565714Y-141420000D01*
X196494285Y-141312857D01*
X196458571Y-141277142D01*
D13*
X176811666Y-134672380D02*
X176240238Y-134672380D01*
X176525952Y-134672380D02*
X176650952Y-133672380D01*
X176537857Y-133815238D01*
X176430714Y-133910476D01*
X176329523Y-133958095D01*
X183243333Y-133712380D02*
X183338571Y-133712380D01*
X183427857Y-133760000D01*
X183469523Y-133807619D01*
X183505238Y-133902857D01*
X183529047Y-134093333D01*
X183499285Y-134331428D01*
X183427857Y-134521904D01*
X183368333Y-134617142D01*
X183314761Y-134664761D01*
X183213571Y-134712380D01*
X183118333Y-134712380D01*
X183029047Y-134664761D01*
X182987380Y-134617142D01*
X182951666Y-134521904D01*
X182927857Y-134331428D01*
X182957619Y-134093333D01*
X183029047Y-133902857D01*
X183088571Y-133807619D01*
X183142142Y-133760000D01*
X183243333Y-133712380D01*
D11*
X118004285Y-125509285D02*
X117575714Y-125509285D01*
X117790000Y-125509285D02*
X117790000Y-124759285D01*
X117718571Y-124866428D01*
X117647142Y-124937857D01*
X117575714Y-124973571D01*
D13*
X145735714Y-138252380D02*
X145164285Y-138252380D01*
X145450000Y-138252380D02*
X145450000Y-137252380D01*
X145354761Y-137395238D01*
X145259523Y-137490476D01*
X145164285Y-137538095D01*
D14*
%TO.C,S3*%
X200250000Y-137755000D02*
X201380000Y-137755000D01*
X204620000Y-137755000D02*
X205750000Y-137755000D01*
X205750000Y-137755000D02*
X205750000Y-138405000D01*
X205750000Y-140255000D02*
X205750000Y-139745000D01*
X200250000Y-138405000D02*
X200250000Y-137755000D01*
X200250000Y-140255000D02*
X200250000Y-139745000D01*
X205750000Y-140255000D02*
X204300000Y-140255000D01*
X204300000Y-140255000D02*
X203100000Y-140255000D01*
X203100000Y-140255000D02*
X200250000Y-140255000D01*
X203100000Y-140255000D02*
X203100000Y-141355000D01*
X203100000Y-141355000D02*
X203300000Y-141555000D01*
X203300000Y-141555000D02*
X204100000Y-141555000D01*
X204100000Y-141555000D02*
X204300000Y-141355000D01*
X204300000Y-141355000D02*
X204300000Y-140255000D01*
D13*
X202100000Y-136865000D02*
G75*
G03*
X202100000Y-136865000I-100000J0D01*
G01*
D14*
%TO.C,S2*%
X177250000Y-129255000D02*
X178380000Y-129255000D01*
X181620000Y-129255000D02*
X182750000Y-129255000D01*
X182750000Y-129255000D02*
X182750000Y-129905000D01*
X182750000Y-131755000D02*
X182750000Y-131245000D01*
X177250000Y-129905000D02*
X177250000Y-129255000D01*
X177250000Y-131755000D02*
X177250000Y-131245000D01*
X182750000Y-131755000D02*
X181300000Y-131755000D01*
X181300000Y-131755000D02*
X180100000Y-131755000D01*
X180100000Y-131755000D02*
X177250000Y-131755000D01*
X180100000Y-131755000D02*
X180100000Y-132855000D01*
X180100000Y-132855000D02*
X180300000Y-133055000D01*
X180300000Y-133055000D02*
X181100000Y-133055000D01*
X181100000Y-133055000D02*
X181300000Y-132855000D01*
X181300000Y-132855000D02*
X181300000Y-131755000D01*
D13*
X179100000Y-128365000D02*
G75*
G03*
X179100000Y-128365000I-100000J0D01*
G01*
D14*
%TO.C,S1*%
X177250000Y-135755000D02*
X178380000Y-135755000D01*
X181620000Y-135755000D02*
X182750000Y-135755000D01*
X182750000Y-135755000D02*
X182750000Y-136405000D01*
X182750000Y-138255000D02*
X182750000Y-137745000D01*
X177250000Y-136405000D02*
X177250000Y-135755000D01*
X177250000Y-138255000D02*
X177250000Y-137745000D01*
X182750000Y-138255000D02*
X181300000Y-138255000D01*
X181300000Y-138255000D02*
X180100000Y-138255000D01*
X180100000Y-138255000D02*
X177250000Y-138255000D01*
X180100000Y-138255000D02*
X180100000Y-139355000D01*
X180100000Y-139355000D02*
X180300000Y-139555000D01*
X180300000Y-139555000D02*
X181100000Y-139555000D01*
X181100000Y-139555000D02*
X181300000Y-139355000D01*
X181300000Y-139355000D02*
X181300000Y-138255000D01*
D13*
X179100000Y-134865000D02*
G75*
G03*
X179100000Y-134865000I-100000J0D01*
G01*
D15*
%TO.C,R5*%
X208130000Y-138076359D02*
X208130000Y-138383641D01*
X207370000Y-138076359D02*
X207370000Y-138383641D01*
%TO.C,R4*%
X198630000Y-138076359D02*
X198630000Y-138383641D01*
X197870000Y-138076359D02*
X197870000Y-138383641D01*
D13*
%TO.C,IC1*%
X138000000Y-132850000D02*
X138000000Y-121150000D01*
X138000000Y-121150000D02*
X146000000Y-121150000D01*
X146000000Y-121150000D02*
X146000000Y-132850000D01*
X146000000Y-132850000D02*
X138000000Y-132850000D01*
X137750000Y-134500000D02*
X137750000Y-133200000D01*
D15*
%TO.C,TP1*%
X168700000Y-137500000D02*
G75*
G03*
X168700000Y-137500000I-700000J0D01*
G01*
%TO.C,C6*%
X92615000Y-139131568D02*
X92615000Y-139347240D01*
X93335000Y-139131568D02*
X93335000Y-139347240D01*
%TO.C,J3*%
X88405000Y-142999404D02*
X90385000Y-142999404D01*
X90385000Y-142999404D02*
X90385000Y-142579404D01*
X86435000Y-142999404D02*
X86035000Y-142999404D01*
X86035000Y-135479404D02*
X86435000Y-135479404D01*
X88405000Y-135479404D02*
X90385000Y-135479404D01*
X90385000Y-135479404D02*
X90385000Y-135899404D01*
X91065000Y-137929404D02*
X91065000Y-137479404D01*
X90615000Y-137479404D02*
X91065000Y-137479404D01*
%TO.C,C3*%
X118961252Y-138015000D02*
X118438748Y-138015000D01*
X118961252Y-139485000D02*
X118438748Y-139485000D01*
%TO.C,C30*%
X175940580Y-120030000D02*
X175659420Y-120030000D01*
X175940580Y-121050000D02*
X175659420Y-121050000D01*
%TO.C,C29*%
X175940580Y-118030000D02*
X175659420Y-118030000D01*
X175940580Y-119050000D02*
X175659420Y-119050000D01*
%TO.C,J7*%
X175080000Y-137330000D02*
X173750000Y-137330000D01*
X175080000Y-136000000D02*
X175080000Y-137330000D01*
X172480000Y-137330000D02*
X169880000Y-137330000D01*
X172480000Y-134730000D02*
X172480000Y-137330000D01*
X175080000Y-134730000D02*
X172480000Y-134730000D01*
X169880000Y-137330000D02*
X169880000Y-124510000D01*
X175080000Y-134730000D02*
X175080000Y-124510000D01*
X175080000Y-124510000D02*
X169880000Y-124510000D01*
%TO.C,R16*%
X181153641Y-118370000D02*
X180846359Y-118370000D01*
X181153641Y-119130000D02*
X180846359Y-119130000D01*
%TO.C,R15*%
X183653641Y-117620000D02*
X183346359Y-117620000D01*
X183653641Y-118380000D02*
X183346359Y-118380000D01*
%TO.C,J5*%
X207105893Y-128745893D02*
X207105893Y-135025893D01*
X207105893Y-135025893D02*
X191155893Y-135025893D01*
X191155893Y-135025893D02*
X191155893Y-128745893D01*
X191155893Y-125545893D02*
X191155893Y-113105893D01*
X191155893Y-113105893D02*
X207105893Y-113105893D01*
X207105893Y-113105893D02*
X207105893Y-125545893D01*
X207305893Y-131435893D02*
X207305893Y-129435893D01*
%TO.C,R13*%
X185096359Y-131880000D02*
X185403641Y-131880000D01*
X185096359Y-131120000D02*
X185403641Y-131120000D01*
%TO.C,R12*%
X185096359Y-133130000D02*
X185403641Y-133130000D01*
X185096359Y-132370000D02*
X185403641Y-132370000D01*
%TO.C,R11*%
X185096359Y-135630000D02*
X185403641Y-135630000D01*
X185096359Y-134870000D02*
X185403641Y-134870000D01*
%TO.C,R1*%
X185096359Y-134380000D02*
X185403641Y-134380000D01*
X185096359Y-133620000D02*
X185403641Y-133620000D01*
%TO.C,C8*%
X153738748Y-139265000D02*
X154261252Y-139265000D01*
X153738748Y-140735000D02*
X154261252Y-140735000D01*
%TO.C,C7*%
X147265000Y-127761252D02*
X147265000Y-127238748D01*
X148735000Y-127761252D02*
X148735000Y-127238748D01*
%TO.C,C28*%
X131735000Y-121761252D02*
X131735000Y-121238748D01*
X130265000Y-121761252D02*
X130265000Y-121238748D01*
%TO.C,C17*%
X122060000Y-120711252D02*
X122060000Y-119288748D01*
X120240000Y-120711252D02*
X120240000Y-119288748D01*
%TO.C,C4*%
X99730252Y-140090000D02*
X98307748Y-140090000D01*
X99730252Y-141910000D02*
X98307748Y-141910000D01*
%TO.C,C21*%
X97910000Y-134811252D02*
X97910000Y-133388748D01*
X96090000Y-134811252D02*
X96090000Y-133388748D01*
%TO.C,C5*%
X141377836Y-136110000D02*
X141162164Y-136110000D01*
X141377836Y-135390000D02*
X141162164Y-135390000D01*
%TO.C,C2*%
X161160000Y-138142164D02*
X161160000Y-138357836D01*
X160440000Y-138142164D02*
X160440000Y-138357836D01*
%TO.C,U2*%
X164535000Y-124890000D02*
X164535000Y-123600000D01*
X165110000Y-124890000D02*
X164535000Y-124890000D01*
X165110000Y-125465000D02*
X165110000Y-124890000D01*
X165110000Y-135110000D02*
X164535000Y-135110000D01*
X165110000Y-134535000D02*
X165110000Y-135110000D01*
X154890000Y-124890000D02*
X155465000Y-124890000D01*
X154890000Y-125465000D02*
X154890000Y-124890000D01*
X154890000Y-135110000D02*
X155465000Y-135110000D01*
X154890000Y-134535000D02*
X154890000Y-135110000D01*
%TO.C,U3*%
X128560000Y-135110000D02*
X129510000Y-135110000D01*
X129510000Y-135110000D02*
X129510000Y-134160000D01*
X120240000Y-135110000D02*
X119290000Y-135110000D01*
X119290000Y-135110000D02*
X119290000Y-134160000D01*
X128560000Y-124890000D02*
X129510000Y-124890000D01*
X129510000Y-124890000D02*
X129510000Y-125840000D01*
X120240000Y-124890000D02*
X119290000Y-124890000D01*
X119290000Y-124890000D02*
X119290000Y-125840000D01*
X119290000Y-125840000D02*
X118000000Y-125840000D01*
%TO.C,FB1*%
X188310000Y-126399622D02*
X188310000Y-125600378D01*
X187190000Y-126399622D02*
X187190000Y-125600378D01*
%TO.C,R2*%
X150143641Y-122380000D02*
X149836359Y-122380000D01*
X150143641Y-121620000D02*
X149836359Y-121620000D01*
%TO.C,C1*%
X118607836Y-123360000D02*
X118392164Y-123360000D01*
X118607836Y-122640000D02*
X118392164Y-122640000D01*
%TO.C,C34*%
X132642164Y-127110000D02*
X132857836Y-127110000D01*
X132642164Y-126390000D02*
X132857836Y-126390000D01*
%TO.C,C33*%
X151857836Y-130360000D02*
X151642164Y-130360000D01*
X151857836Y-129640000D02*
X151642164Y-129640000D01*
%TO.C,C32*%
X116107836Y-127390000D02*
X115892164Y-127390000D01*
X116107836Y-128110000D02*
X115892164Y-128110000D01*
%TO.C,R14*%
X184772936Y-122235000D02*
X185227064Y-122235000D01*
X184772936Y-120765000D02*
X185227064Y-120765000D01*
%TO.C,C31*%
X187127836Y-119140000D02*
X186912164Y-119140000D01*
X187127836Y-119860000D02*
X186912164Y-119860000D01*
%TO.C,C27*%
X157240000Y-121857836D02*
X157240000Y-121642164D01*
X157960000Y-121857836D02*
X157960000Y-121642164D01*
%TO.C,C26*%
X167390000Y-128772164D02*
X167390000Y-128987836D01*
X168110000Y-128772164D02*
X168110000Y-128987836D01*
%TO.C,C25*%
X126510000Y-138642164D02*
X126510000Y-138857836D01*
X125790000Y-138642164D02*
X125790000Y-138857836D01*
%TO.C,C24*%
X124290000Y-138642164D02*
X124290000Y-138857836D01*
X125010000Y-138642164D02*
X125010000Y-138857836D01*
%TO.C,C23*%
X122290000Y-138642164D02*
X122290000Y-138857836D01*
X123010000Y-138642164D02*
X123010000Y-138857836D01*
%TO.C,X2*%
X111300000Y-132890000D02*
X115100000Y-132890000D01*
X111300000Y-129740000D02*
X111300000Y-132890000D01*
%TO.C,U4*%
X99544000Y-131840000D02*
X105554000Y-131840000D01*
X101794000Y-138660000D02*
X105554000Y-138660000D01*
X105554000Y-131840000D02*
X105554000Y-133100000D01*
X105554000Y-138660000D02*
X105554000Y-137400000D01*
%TO.C,R10*%
X130370000Y-138346359D02*
X130370000Y-138653641D01*
X131130000Y-138346359D02*
X131130000Y-138653641D01*
%TO.C,R9*%
X131130000Y-136653641D02*
X131130000Y-136346359D01*
X130370000Y-136653641D02*
X130370000Y-136346359D01*
%TO.C,R8*%
X132880000Y-134153641D02*
X132880000Y-133846359D01*
X132120000Y-134153641D02*
X132120000Y-133846359D01*
%TO.C,R7*%
X132120000Y-135846359D02*
X132120000Y-136153641D01*
X132880000Y-135846359D02*
X132880000Y-136153641D01*
%TO.C,R6*%
X116153641Y-126120000D02*
X115846359Y-126120000D01*
X116153641Y-126880000D02*
X115846359Y-126880000D01*
%TO.C,R3*%
X117370000Y-135846359D02*
X117370000Y-136153641D01*
X118130000Y-135846359D02*
X118130000Y-136153641D01*
%TO.C,C22*%
X185642164Y-123890000D02*
X185857836Y-123890000D01*
X185642164Y-123170000D02*
X185857836Y-123170000D01*
%TO.C,C20*%
X97107836Y-137190000D02*
X96892164Y-137190000D01*
X97107836Y-137910000D02*
X96892164Y-137910000D01*
%TO.C,C19*%
X111777836Y-128140000D02*
X111562164Y-128140000D01*
X111777836Y-128860000D02*
X111562164Y-128860000D01*
%TO.C,C18*%
X112522164Y-127360000D02*
X112737836Y-127360000D01*
X112522164Y-126640000D02*
X112737836Y-126640000D01*
D10*
%TO.C,J1*%
X207620000Y-150020000D02*
X207620000Y-150020000D01*
X201500000Y-150020000D02*
X207620000Y-150020000D01*
X201500000Y-150020000D02*
X201500000Y-150020000D01*
X207620000Y-150020000D02*
X201500000Y-150020000D01*
X207620000Y-150020000D02*
X207620000Y-162640000D01*
X207620000Y-150020000D02*
X207620000Y-150020000D01*
X207620000Y-162640000D02*
X207620000Y-150020000D01*
X207620000Y-162640000D02*
X207620000Y-162640000D01*
X93320000Y-162640000D02*
X93320000Y-162640000D01*
X207620000Y-162640000D02*
X93320000Y-162640000D01*
X207620000Y-162640000D02*
X207620000Y-162640000D01*
X93320000Y-162640000D02*
X207620000Y-162640000D01*
X93320000Y-162640000D02*
X93320000Y-150020000D01*
X93320000Y-162640000D02*
X93320000Y-162640000D01*
X93320000Y-150020000D02*
X93320000Y-162640000D01*
X93320000Y-150020000D02*
X93320000Y-150020000D01*
X99500000Y-150020000D02*
X99500000Y-150020000D01*
X93320000Y-150020000D02*
X99500000Y-150020000D01*
X93320000Y-150020000D02*
X93320000Y-150020000D01*
X99500000Y-150020000D02*
X93320000Y-150020000D01*
%TO.C,S3*%
D11*
X199228095Y-136854761D02*
X199370952Y-136902380D01*
X199609047Y-136902380D01*
X199704285Y-136854761D01*
X199751904Y-136807142D01*
X199799523Y-136711904D01*
X199799523Y-136616666D01*
X199751904Y-136521428D01*
X199704285Y-136473809D01*
X199609047Y-136426190D01*
X199418571Y-136378571D01*
X199323333Y-136330952D01*
X199275714Y-136283333D01*
X199228095Y-136188095D01*
X199228095Y-136092857D01*
X199275714Y-135997619D01*
X199323333Y-135950000D01*
X199418571Y-135902380D01*
X199656666Y-135902380D01*
X199799523Y-135950000D01*
X200132857Y-135902380D02*
X200751904Y-135902380D01*
X200418571Y-136283333D01*
X200561428Y-136283333D01*
X200656666Y-136330952D01*
X200704285Y-136378571D01*
X200751904Y-136473809D01*
X200751904Y-136711904D01*
X200704285Y-136807142D01*
X200656666Y-136854761D01*
X200561428Y-136902380D01*
X200275714Y-136902380D01*
X200180476Y-136854761D01*
X200132857Y-136807142D01*
%TO.C,S2*%
X178713095Y-127684761D02*
X178855952Y-127732380D01*
X179094047Y-127732380D01*
X179189285Y-127684761D01*
X179236904Y-127637142D01*
X179284523Y-127541904D01*
X179284523Y-127446666D01*
X179236904Y-127351428D01*
X179189285Y-127303809D01*
X179094047Y-127256190D01*
X178903571Y-127208571D01*
X178808333Y-127160952D01*
X178760714Y-127113333D01*
X178713095Y-127018095D01*
X178713095Y-126922857D01*
X178760714Y-126827619D01*
X178808333Y-126780000D01*
X178903571Y-126732380D01*
X179141666Y-126732380D01*
X179284523Y-126780000D01*
X179665476Y-126827619D02*
X179713095Y-126780000D01*
X179808333Y-126732380D01*
X180046428Y-126732380D01*
X180141666Y-126780000D01*
X180189285Y-126827619D01*
X180236904Y-126922857D01*
X180236904Y-127018095D01*
X180189285Y-127160952D01*
X179617857Y-127732380D01*
X180236904Y-127732380D01*
%TO.C,S1*%
X178713095Y-134184761D02*
X178855952Y-134232380D01*
X179094047Y-134232380D01*
X179189285Y-134184761D01*
X179236904Y-134137142D01*
X179284523Y-134041904D01*
X179284523Y-133946666D01*
X179236904Y-133851428D01*
X179189285Y-133803809D01*
X179094047Y-133756190D01*
X178903571Y-133708571D01*
X178808333Y-133660952D01*
X178760714Y-133613333D01*
X178713095Y-133518095D01*
X178713095Y-133422857D01*
X178760714Y-133327619D01*
X178808333Y-133280000D01*
X178903571Y-133232380D01*
X179141666Y-133232380D01*
X179284523Y-133280000D01*
X180236904Y-134232380D02*
X179665476Y-134232380D01*
X179951190Y-134232380D02*
X179951190Y-133232380D01*
X179855952Y-133375238D01*
X179760714Y-133470476D01*
X179665476Y-133518095D01*
%TO.C,R5*%
X209572380Y-138416666D02*
X209096190Y-138750000D01*
X209572380Y-138988095D02*
X208572380Y-138988095D01*
X208572380Y-138607142D01*
X208620000Y-138511904D01*
X208667619Y-138464285D01*
X208762857Y-138416666D01*
X208905714Y-138416666D01*
X209000952Y-138464285D01*
X209048571Y-138511904D01*
X209096190Y-138607142D01*
X209096190Y-138988095D01*
X208572380Y-137511904D02*
X208572380Y-137988095D01*
X209048571Y-138035714D01*
X209000952Y-137988095D01*
X208953333Y-137892857D01*
X208953333Y-137654761D01*
X209000952Y-137559523D01*
X209048571Y-137511904D01*
X209143809Y-137464285D01*
X209381904Y-137464285D01*
X209477142Y-137511904D01*
X209524761Y-137559523D01*
X209572380Y-137654761D01*
X209572380Y-137892857D01*
X209524761Y-137988095D01*
X209477142Y-138035714D01*
%TO.C,R4*%
X197302380Y-138426666D02*
X196826190Y-138760000D01*
X197302380Y-138998095D02*
X196302380Y-138998095D01*
X196302380Y-138617142D01*
X196350000Y-138521904D01*
X196397619Y-138474285D01*
X196492857Y-138426666D01*
X196635714Y-138426666D01*
X196730952Y-138474285D01*
X196778571Y-138521904D01*
X196826190Y-138617142D01*
X196826190Y-138998095D01*
X196635714Y-137569523D02*
X197302380Y-137569523D01*
X196254761Y-137807619D02*
X196969047Y-138045714D01*
X196969047Y-137426666D01*
%TO.C,IC1*%
D16*
X142574523Y-128239761D02*
X141304523Y-128239761D01*
X142453571Y-126909285D02*
X142514047Y-126969761D01*
X142574523Y-127151190D01*
X142574523Y-127272142D01*
X142514047Y-127453571D01*
X142393095Y-127574523D01*
X142272142Y-127635000D01*
X142030238Y-127695476D01*
X141848809Y-127695476D01*
X141606904Y-127635000D01*
X141485952Y-127574523D01*
X141365000Y-127453571D01*
X141304523Y-127272142D01*
X141304523Y-127151190D01*
X141365000Y-126969761D01*
X141425476Y-126909285D01*
X142574523Y-125699761D02*
X142574523Y-126425476D01*
X142574523Y-126062619D02*
X141304523Y-126062619D01*
X141485952Y-126183571D01*
X141606904Y-126304523D01*
X141667380Y-126425476D01*
%TO.C,TP1*%
D11*
X166528095Y-138692380D02*
X167099523Y-138692380D01*
X166813809Y-139692380D02*
X166813809Y-138692380D01*
X167432857Y-139692380D02*
X167432857Y-138692380D01*
X167813809Y-138692380D01*
X167909047Y-138740000D01*
X167956666Y-138787619D01*
X168004285Y-138882857D01*
X168004285Y-139025714D01*
X167956666Y-139120952D01*
X167909047Y-139168571D01*
X167813809Y-139216190D01*
X167432857Y-139216190D01*
X168956666Y-139692380D02*
X168385238Y-139692380D01*
X168670952Y-139692380D02*
X168670952Y-138692380D01*
X168575714Y-138835238D01*
X168480476Y-138930476D01*
X168385238Y-138978095D01*
%TO.C,C6*%
X94492142Y-139406070D02*
X94539761Y-139453689D01*
X94587380Y-139596546D01*
X94587380Y-139691784D01*
X94539761Y-139834642D01*
X94444523Y-139929880D01*
X94349285Y-139977499D01*
X94158809Y-140025118D01*
X94015952Y-140025118D01*
X93825476Y-139977499D01*
X93730238Y-139929880D01*
X93635000Y-139834642D01*
X93587380Y-139691784D01*
X93587380Y-139596546D01*
X93635000Y-139453689D01*
X93682619Y-139406070D01*
X93587380Y-138548927D02*
X93587380Y-138739404D01*
X93635000Y-138834642D01*
X93682619Y-138882261D01*
X93825476Y-138977499D01*
X94015952Y-139025118D01*
X94396904Y-139025118D01*
X94492142Y-138977499D01*
X94539761Y-138929880D01*
X94587380Y-138834642D01*
X94587380Y-138644165D01*
X94539761Y-138548927D01*
X94492142Y-138501308D01*
X94396904Y-138453689D01*
X94158809Y-138453689D01*
X94063571Y-138501308D01*
X94015952Y-138548927D01*
X93968333Y-138644165D01*
X93968333Y-138834642D01*
X94015952Y-138929880D01*
X94063571Y-138977499D01*
X94158809Y-139025118D01*
%TO.C,J3*%
X86521666Y-143781784D02*
X86521666Y-144496070D01*
X86474047Y-144638927D01*
X86378809Y-144734165D01*
X86235952Y-144781784D01*
X86140714Y-144781784D01*
X86902619Y-143781784D02*
X87521666Y-143781784D01*
X87188333Y-144162737D01*
X87331190Y-144162737D01*
X87426428Y-144210356D01*
X87474047Y-144257975D01*
X87521666Y-144353213D01*
X87521666Y-144591308D01*
X87474047Y-144686546D01*
X87426428Y-144734165D01*
X87331190Y-144781784D01*
X87045476Y-144781784D01*
X86950238Y-144734165D01*
X86902619Y-144686546D01*
%TO.C,C3*%
X118533333Y-140787142D02*
X118485714Y-140834761D01*
X118342857Y-140882380D01*
X118247619Y-140882380D01*
X118104761Y-140834761D01*
X118009523Y-140739523D01*
X117961904Y-140644285D01*
X117914285Y-140453809D01*
X117914285Y-140310952D01*
X117961904Y-140120476D01*
X118009523Y-140025238D01*
X118104761Y-139930000D01*
X118247619Y-139882380D01*
X118342857Y-139882380D01*
X118485714Y-139930000D01*
X118533333Y-139977619D01*
X118866666Y-139882380D02*
X119485714Y-139882380D01*
X119152380Y-140263333D01*
X119295238Y-140263333D01*
X119390476Y-140310952D01*
X119438095Y-140358571D01*
X119485714Y-140453809D01*
X119485714Y-140691904D01*
X119438095Y-140787142D01*
X119390476Y-140834761D01*
X119295238Y-140882380D01*
X119009523Y-140882380D01*
X118914285Y-140834761D01*
X118866666Y-140787142D01*
%TO.C,C30*%
X172087142Y-120887142D02*
X172039523Y-120934761D01*
X171896666Y-120982380D01*
X171801428Y-120982380D01*
X171658571Y-120934761D01*
X171563333Y-120839523D01*
X171515714Y-120744285D01*
X171468095Y-120553809D01*
X171468095Y-120410952D01*
X171515714Y-120220476D01*
X171563333Y-120125238D01*
X171658571Y-120030000D01*
X171801428Y-119982380D01*
X171896666Y-119982380D01*
X172039523Y-120030000D01*
X172087142Y-120077619D01*
X172420476Y-119982380D02*
X173039523Y-119982380D01*
X172706190Y-120363333D01*
X172849047Y-120363333D01*
X172944285Y-120410952D01*
X172991904Y-120458571D01*
X173039523Y-120553809D01*
X173039523Y-120791904D01*
X172991904Y-120887142D01*
X172944285Y-120934761D01*
X172849047Y-120982380D01*
X172563333Y-120982380D01*
X172468095Y-120934761D01*
X172420476Y-120887142D01*
X173658571Y-119982380D02*
X173753809Y-119982380D01*
X173849047Y-120030000D01*
X173896666Y-120077619D01*
X173944285Y-120172857D01*
X173991904Y-120363333D01*
X173991904Y-120601428D01*
X173944285Y-120791904D01*
X173896666Y-120887142D01*
X173849047Y-120934761D01*
X173753809Y-120982380D01*
X173658571Y-120982380D01*
X173563333Y-120934761D01*
X173515714Y-120887142D01*
X173468095Y-120791904D01*
X173420476Y-120601428D01*
X173420476Y-120363333D01*
X173468095Y-120172857D01*
X173515714Y-120077619D01*
X173563333Y-120030000D01*
X173658571Y-119982380D01*
%TO.C,C29*%
X172097142Y-118887142D02*
X172049523Y-118934761D01*
X171906666Y-118982380D01*
X171811428Y-118982380D01*
X171668571Y-118934761D01*
X171573333Y-118839523D01*
X171525714Y-118744285D01*
X171478095Y-118553809D01*
X171478095Y-118410952D01*
X171525714Y-118220476D01*
X171573333Y-118125238D01*
X171668571Y-118030000D01*
X171811428Y-117982380D01*
X171906666Y-117982380D01*
X172049523Y-118030000D01*
X172097142Y-118077619D01*
X172478095Y-118077619D02*
X172525714Y-118030000D01*
X172620952Y-117982380D01*
X172859047Y-117982380D01*
X172954285Y-118030000D01*
X173001904Y-118077619D01*
X173049523Y-118172857D01*
X173049523Y-118268095D01*
X173001904Y-118410952D01*
X172430476Y-118982380D01*
X173049523Y-118982380D01*
X173525714Y-118982380D02*
X173716190Y-118982380D01*
X173811428Y-118934761D01*
X173859047Y-118887142D01*
X173954285Y-118744285D01*
X174001904Y-118553809D01*
X174001904Y-118172857D01*
X173954285Y-118077619D01*
X173906666Y-118030000D01*
X173811428Y-117982380D01*
X173620952Y-117982380D01*
X173525714Y-118030000D01*
X173478095Y-118077619D01*
X173430476Y-118172857D01*
X173430476Y-118410952D01*
X173478095Y-118506190D01*
X173525714Y-118553809D01*
X173620952Y-118601428D01*
X173811428Y-118601428D01*
X173906666Y-118553809D01*
X173954285Y-118506190D01*
X174001904Y-118410952D01*
%TO.C,J7*%
X170286666Y-138322380D02*
X170286666Y-139036666D01*
X170239047Y-139179523D01*
X170143809Y-139274761D01*
X170000952Y-139322380D01*
X169905714Y-139322380D01*
X170667619Y-138322380D02*
X171334285Y-138322380D01*
X170905714Y-139322380D01*
%TO.C,R16*%
X180007142Y-118072380D02*
X179673809Y-117596190D01*
X179435714Y-118072380D02*
X179435714Y-117072380D01*
X179816666Y-117072380D01*
X179911904Y-117120000D01*
X179959523Y-117167619D01*
X180007142Y-117262857D01*
X180007142Y-117405714D01*
X179959523Y-117500952D01*
X179911904Y-117548571D01*
X179816666Y-117596190D01*
X179435714Y-117596190D01*
X180959523Y-118072380D02*
X180388095Y-118072380D01*
X180673809Y-118072380D02*
X180673809Y-117072380D01*
X180578571Y-117215238D01*
X180483333Y-117310476D01*
X180388095Y-117358095D01*
X181816666Y-117072380D02*
X181626190Y-117072380D01*
X181530952Y-117120000D01*
X181483333Y-117167619D01*
X181388095Y-117310476D01*
X181340476Y-117500952D01*
X181340476Y-117881904D01*
X181388095Y-117977142D01*
X181435714Y-118024761D01*
X181530952Y-118072380D01*
X181721428Y-118072380D01*
X181816666Y-118024761D01*
X181864285Y-117977142D01*
X181911904Y-117881904D01*
X181911904Y-117643809D01*
X181864285Y-117548571D01*
X181816666Y-117500952D01*
X181721428Y-117453333D01*
X181530952Y-117453333D01*
X181435714Y-117500952D01*
X181388095Y-117548571D01*
X181340476Y-117643809D01*
%TO.C,R15*%
X182927142Y-119592380D02*
X182593809Y-119116190D01*
X182355714Y-119592380D02*
X182355714Y-118592380D01*
X182736666Y-118592380D01*
X182831904Y-118640000D01*
X182879523Y-118687619D01*
X182927142Y-118782857D01*
X182927142Y-118925714D01*
X182879523Y-119020952D01*
X182831904Y-119068571D01*
X182736666Y-119116190D01*
X182355714Y-119116190D01*
X183879523Y-119592380D02*
X183308095Y-119592380D01*
X183593809Y-119592380D02*
X183593809Y-118592380D01*
X183498571Y-118735238D01*
X183403333Y-118830476D01*
X183308095Y-118878095D01*
X184784285Y-118592380D02*
X184308095Y-118592380D01*
X184260476Y-119068571D01*
X184308095Y-119020952D01*
X184403333Y-118973333D01*
X184641428Y-118973333D01*
X184736666Y-119020952D01*
X184784285Y-119068571D01*
X184831904Y-119163809D01*
X184831904Y-119401904D01*
X184784285Y-119497142D01*
X184736666Y-119544761D01*
X184641428Y-119592380D01*
X184403333Y-119592380D01*
X184308095Y-119544761D01*
X184260476Y-119497142D01*
%TO.C,J5*%
X208432380Y-118483333D02*
X209146666Y-118483333D01*
X209289523Y-118530952D01*
X209384761Y-118626190D01*
X209432380Y-118769047D01*
X209432380Y-118864285D01*
X208432380Y-117530952D02*
X208432380Y-118007142D01*
X208908571Y-118054761D01*
X208860952Y-118007142D01*
X208813333Y-117911904D01*
X208813333Y-117673809D01*
X208860952Y-117578571D01*
X208908571Y-117530952D01*
X209003809Y-117483333D01*
X209241904Y-117483333D01*
X209337142Y-117530952D01*
X209384761Y-117578571D01*
X209432380Y-117673809D01*
X209432380Y-117911904D01*
X209384761Y-118007142D01*
X209337142Y-118054761D01*
%TO.C,R13*%
X184577142Y-130752380D02*
X184243809Y-130276190D01*
X184005714Y-130752380D02*
X184005714Y-129752380D01*
X184386666Y-129752380D01*
X184481904Y-129800000D01*
X184529523Y-129847619D01*
X184577142Y-129942857D01*
X184577142Y-130085714D01*
X184529523Y-130180952D01*
X184481904Y-130228571D01*
X184386666Y-130276190D01*
X184005714Y-130276190D01*
X185529523Y-130752380D02*
X184958095Y-130752380D01*
X185243809Y-130752380D02*
X185243809Y-129752380D01*
X185148571Y-129895238D01*
X185053333Y-129990476D01*
X184958095Y-130038095D01*
X185862857Y-129752380D02*
X186481904Y-129752380D01*
X186148571Y-130133333D01*
X186291428Y-130133333D01*
X186386666Y-130180952D01*
X186434285Y-130228571D01*
X186481904Y-130323809D01*
X186481904Y-130561904D01*
X186434285Y-130657142D01*
X186386666Y-130704761D01*
X186291428Y-130752380D01*
X186005714Y-130752380D01*
X185910476Y-130704761D01*
X185862857Y-130657142D01*
%TO.C,R12*%
X187107142Y-133042380D02*
X186773809Y-132566190D01*
X186535714Y-133042380D02*
X186535714Y-132042380D01*
X186916666Y-132042380D01*
X187011904Y-132090000D01*
X187059523Y-132137619D01*
X187107142Y-132232857D01*
X187107142Y-132375714D01*
X187059523Y-132470952D01*
X187011904Y-132518571D01*
X186916666Y-132566190D01*
X186535714Y-132566190D01*
X188059523Y-133042380D02*
X187488095Y-133042380D01*
X187773809Y-133042380D02*
X187773809Y-132042380D01*
X187678571Y-132185238D01*
X187583333Y-132280476D01*
X187488095Y-132328095D01*
X188440476Y-132137619D02*
X188488095Y-132090000D01*
X188583333Y-132042380D01*
X188821428Y-132042380D01*
X188916666Y-132090000D01*
X188964285Y-132137619D01*
X189011904Y-132232857D01*
X189011904Y-132328095D01*
X188964285Y-132470952D01*
X188392857Y-133042380D01*
X189011904Y-133042380D01*
%TO.C,R11*%
X184877142Y-137032380D02*
X184543809Y-136556190D01*
X184305714Y-137032380D02*
X184305714Y-136032380D01*
X184686666Y-136032380D01*
X184781904Y-136080000D01*
X184829523Y-136127619D01*
X184877142Y-136222857D01*
X184877142Y-136365714D01*
X184829523Y-136460952D01*
X184781904Y-136508571D01*
X184686666Y-136556190D01*
X184305714Y-136556190D01*
X185829523Y-137032380D02*
X185258095Y-137032380D01*
X185543809Y-137032380D02*
X185543809Y-136032380D01*
X185448571Y-136175238D01*
X185353333Y-136270476D01*
X185258095Y-136318095D01*
X186781904Y-137032380D02*
X186210476Y-137032380D01*
X186496190Y-137032380D02*
X186496190Y-136032380D01*
X186400952Y-136175238D01*
X186305714Y-136270476D01*
X186210476Y-136318095D01*
%TO.C,R1*%
X187173333Y-134852380D02*
X186840000Y-134376190D01*
X186601904Y-134852380D02*
X186601904Y-133852380D01*
X186982857Y-133852380D01*
X187078095Y-133900000D01*
X187125714Y-133947619D01*
X187173333Y-134042857D01*
X187173333Y-134185714D01*
X187125714Y-134280952D01*
X187078095Y-134328571D01*
X186982857Y-134376190D01*
X186601904Y-134376190D01*
X188125714Y-134852380D02*
X187554285Y-134852380D01*
X187840000Y-134852380D02*
X187840000Y-133852380D01*
X187744761Y-133995238D01*
X187649523Y-134090476D01*
X187554285Y-134138095D01*
%TO.C,C8*%
X156623333Y-140307142D02*
X156575714Y-140354761D01*
X156432857Y-140402380D01*
X156337619Y-140402380D01*
X156194761Y-140354761D01*
X156099523Y-140259523D01*
X156051904Y-140164285D01*
X156004285Y-139973809D01*
X156004285Y-139830952D01*
X156051904Y-139640476D01*
X156099523Y-139545238D01*
X156194761Y-139450000D01*
X156337619Y-139402380D01*
X156432857Y-139402380D01*
X156575714Y-139450000D01*
X156623333Y-139497619D01*
X157194761Y-139830952D02*
X157099523Y-139783333D01*
X157051904Y-139735714D01*
X157004285Y-139640476D01*
X157004285Y-139592857D01*
X157051904Y-139497619D01*
X157099523Y-139450000D01*
X157194761Y-139402380D01*
X157385238Y-139402380D01*
X157480476Y-139450000D01*
X157528095Y-139497619D01*
X157575714Y-139592857D01*
X157575714Y-139640476D01*
X157528095Y-139735714D01*
X157480476Y-139783333D01*
X157385238Y-139830952D01*
X157194761Y-139830952D01*
X157099523Y-139878571D01*
X157051904Y-139926190D01*
X157004285Y-140021428D01*
X157004285Y-140211904D01*
X157051904Y-140307142D01*
X157099523Y-140354761D01*
X157194761Y-140402380D01*
X157385238Y-140402380D01*
X157480476Y-140354761D01*
X157528095Y-140307142D01*
X157575714Y-140211904D01*
X157575714Y-140021428D01*
X157528095Y-139926190D01*
X157480476Y-139878571D01*
X157385238Y-139830952D01*
%TO.C,C7*%
X150277142Y-126886666D02*
X150324761Y-126934285D01*
X150372380Y-127077142D01*
X150372380Y-127172380D01*
X150324761Y-127315238D01*
X150229523Y-127410476D01*
X150134285Y-127458095D01*
X149943809Y-127505714D01*
X149800952Y-127505714D01*
X149610476Y-127458095D01*
X149515238Y-127410476D01*
X149420000Y-127315238D01*
X149372380Y-127172380D01*
X149372380Y-127077142D01*
X149420000Y-126934285D01*
X149467619Y-126886666D01*
X149372380Y-126553333D02*
X149372380Y-125886666D01*
X150372380Y-126315238D01*
%TO.C,C28*%
X129677142Y-122142857D02*
X129724761Y-122190476D01*
X129772380Y-122333333D01*
X129772380Y-122428571D01*
X129724761Y-122571428D01*
X129629523Y-122666666D01*
X129534285Y-122714285D01*
X129343809Y-122761904D01*
X129200952Y-122761904D01*
X129010476Y-122714285D01*
X128915238Y-122666666D01*
X128820000Y-122571428D01*
X128772380Y-122428571D01*
X128772380Y-122333333D01*
X128820000Y-122190476D01*
X128867619Y-122142857D01*
X128867619Y-121761904D02*
X128820000Y-121714285D01*
X128772380Y-121619047D01*
X128772380Y-121380952D01*
X128820000Y-121285714D01*
X128867619Y-121238095D01*
X128962857Y-121190476D01*
X129058095Y-121190476D01*
X129200952Y-121238095D01*
X129772380Y-121809523D01*
X129772380Y-121190476D01*
X129200952Y-120619047D02*
X129153333Y-120714285D01*
X129105714Y-120761904D01*
X129010476Y-120809523D01*
X128962857Y-120809523D01*
X128867619Y-120761904D01*
X128820000Y-120714285D01*
X128772380Y-120619047D01*
X128772380Y-120428571D01*
X128820000Y-120333333D01*
X128867619Y-120285714D01*
X128962857Y-120238095D01*
X129010476Y-120238095D01*
X129105714Y-120285714D01*
X129153333Y-120333333D01*
X129200952Y-120428571D01*
X129200952Y-120619047D01*
X129248571Y-120714285D01*
X129296190Y-120761904D01*
X129391428Y-120809523D01*
X129581904Y-120809523D01*
X129677142Y-120761904D01*
X129724761Y-120714285D01*
X129772380Y-120619047D01*
X129772380Y-120428571D01*
X129724761Y-120333333D01*
X129677142Y-120285714D01*
X129581904Y-120238095D01*
X129391428Y-120238095D01*
X129296190Y-120285714D01*
X129248571Y-120333333D01*
X129200952Y-120428571D01*
%TO.C,C17*%
X123137142Y-119947142D02*
X123089523Y-119994761D01*
X122946666Y-120042380D01*
X122851428Y-120042380D01*
X122708571Y-119994761D01*
X122613333Y-119899523D01*
X122565714Y-119804285D01*
X122518095Y-119613809D01*
X122518095Y-119470952D01*
X122565714Y-119280476D01*
X122613333Y-119185238D01*
X122708571Y-119090000D01*
X122851428Y-119042380D01*
X122946666Y-119042380D01*
X123089523Y-119090000D01*
X123137142Y-119137619D01*
X124089523Y-120042380D02*
X123518095Y-120042380D01*
X123803809Y-120042380D02*
X123803809Y-119042380D01*
X123708571Y-119185238D01*
X123613333Y-119280476D01*
X123518095Y-119328095D01*
X124422857Y-119042380D02*
X125089523Y-119042380D01*
X124660952Y-120042380D01*
%TO.C,C4*%
X95397142Y-141296666D02*
X95444761Y-141344285D01*
X95492380Y-141487142D01*
X95492380Y-141582380D01*
X95444761Y-141725238D01*
X95349523Y-141820476D01*
X95254285Y-141868095D01*
X95063809Y-141915714D01*
X94920952Y-141915714D01*
X94730476Y-141868095D01*
X94635238Y-141820476D01*
X94540000Y-141725238D01*
X94492380Y-141582380D01*
X94492380Y-141487142D01*
X94540000Y-141344285D01*
X94587619Y-141296666D01*
X94825714Y-140439523D02*
X95492380Y-140439523D01*
X94444761Y-140677619D02*
X95159047Y-140915714D01*
X95159047Y-140296666D01*
%TO.C,C21*%
X96357142Y-131417142D02*
X96309523Y-131464761D01*
X96166666Y-131512380D01*
X96071428Y-131512380D01*
X95928571Y-131464761D01*
X95833333Y-131369523D01*
X95785714Y-131274285D01*
X95738095Y-131083809D01*
X95738095Y-130940952D01*
X95785714Y-130750476D01*
X95833333Y-130655238D01*
X95928571Y-130560000D01*
X96071428Y-130512380D01*
X96166666Y-130512380D01*
X96309523Y-130560000D01*
X96357142Y-130607619D01*
X96738095Y-130607619D02*
X96785714Y-130560000D01*
X96880952Y-130512380D01*
X97119047Y-130512380D01*
X97214285Y-130560000D01*
X97261904Y-130607619D01*
X97309523Y-130702857D01*
X97309523Y-130798095D01*
X97261904Y-130940952D01*
X96690476Y-131512380D01*
X97309523Y-131512380D01*
X98261904Y-131512380D02*
X97690476Y-131512380D01*
X97976190Y-131512380D02*
X97976190Y-130512380D01*
X97880952Y-130655238D01*
X97785714Y-130750476D01*
X97690476Y-130798095D01*
%TO.C,C5*%
X139053333Y-136127142D02*
X139005714Y-136174761D01*
X138862857Y-136222380D01*
X138767619Y-136222380D01*
X138624761Y-136174761D01*
X138529523Y-136079523D01*
X138481904Y-135984285D01*
X138434285Y-135793809D01*
X138434285Y-135650952D01*
X138481904Y-135460476D01*
X138529523Y-135365238D01*
X138624761Y-135270000D01*
X138767619Y-135222380D01*
X138862857Y-135222380D01*
X139005714Y-135270000D01*
X139053333Y-135317619D01*
X139958095Y-135222380D02*
X139481904Y-135222380D01*
X139434285Y-135698571D01*
X139481904Y-135650952D01*
X139577142Y-135603333D01*
X139815238Y-135603333D01*
X139910476Y-135650952D01*
X139958095Y-135698571D01*
X140005714Y-135793809D01*
X140005714Y-136031904D01*
X139958095Y-136127142D01*
X139910476Y-136174761D01*
X139815238Y-136222380D01*
X139577142Y-136222380D01*
X139481904Y-136174761D01*
X139434285Y-136127142D01*
%TO.C,C2*%
X162377142Y-138516666D02*
X162424761Y-138564285D01*
X162472380Y-138707142D01*
X162472380Y-138802380D01*
X162424761Y-138945238D01*
X162329523Y-139040476D01*
X162234285Y-139088095D01*
X162043809Y-139135714D01*
X161900952Y-139135714D01*
X161710476Y-139088095D01*
X161615238Y-139040476D01*
X161520000Y-138945238D01*
X161472380Y-138802380D01*
X161472380Y-138707142D01*
X161520000Y-138564285D01*
X161567619Y-138516666D01*
X161567619Y-138135714D02*
X161520000Y-138088095D01*
X161472380Y-137992857D01*
X161472380Y-137754761D01*
X161520000Y-137659523D01*
X161567619Y-137611904D01*
X161662857Y-137564285D01*
X161758095Y-137564285D01*
X161900952Y-137611904D01*
X162472380Y-138183333D01*
X162472380Y-137564285D01*
%TO.C,U2*%
X167012380Y-134411904D02*
X167821904Y-134411904D01*
X167917142Y-134364285D01*
X167964761Y-134316666D01*
X168012380Y-134221428D01*
X168012380Y-134030952D01*
X167964761Y-133935714D01*
X167917142Y-133888095D01*
X167821904Y-133840476D01*
X167012380Y-133840476D01*
X167107619Y-133411904D02*
X167060000Y-133364285D01*
X167012380Y-133269047D01*
X167012380Y-133030952D01*
X167060000Y-132935714D01*
X167107619Y-132888095D01*
X167202857Y-132840476D01*
X167298095Y-132840476D01*
X167440952Y-132888095D01*
X168012380Y-133459523D01*
X168012380Y-132840476D01*
%TO.C,U3*%
X124208095Y-122032380D02*
X124208095Y-122841904D01*
X124255714Y-122937142D01*
X124303333Y-122984761D01*
X124398571Y-123032380D01*
X124589047Y-123032380D01*
X124684285Y-122984761D01*
X124731904Y-122937142D01*
X124779523Y-122841904D01*
X124779523Y-122032380D01*
X125160476Y-122032380D02*
X125779523Y-122032380D01*
X125446190Y-122413333D01*
X125589047Y-122413333D01*
X125684285Y-122460952D01*
X125731904Y-122508571D01*
X125779523Y-122603809D01*
X125779523Y-122841904D01*
X125731904Y-122937142D01*
X125684285Y-122984761D01*
X125589047Y-123032380D01*
X125303333Y-123032380D01*
X125208095Y-122984761D01*
X125160476Y-122937142D01*
%TO.C,FB1*%
X186048571Y-127473333D02*
X186048571Y-127806666D01*
X186572380Y-127806666D02*
X185572380Y-127806666D01*
X185572380Y-127330476D01*
X186048571Y-126616190D02*
X186096190Y-126473333D01*
X186143809Y-126425714D01*
X186239047Y-126378095D01*
X186381904Y-126378095D01*
X186477142Y-126425714D01*
X186524761Y-126473333D01*
X186572380Y-126568571D01*
X186572380Y-126949523D01*
X185572380Y-126949523D01*
X185572380Y-126616190D01*
X185620000Y-126520952D01*
X185667619Y-126473333D01*
X185762857Y-126425714D01*
X185858095Y-126425714D01*
X185953333Y-126473333D01*
X186000952Y-126520952D01*
X186048571Y-126616190D01*
X186048571Y-126949523D01*
X186572380Y-125425714D02*
X186572380Y-125997142D01*
X186572380Y-125711428D02*
X185572380Y-125711428D01*
X185715238Y-125806666D01*
X185810476Y-125901904D01*
X185858095Y-125997142D01*
%TO.C,R2*%
X149753333Y-123702380D02*
X149420000Y-123226190D01*
X149181904Y-123702380D02*
X149181904Y-122702380D01*
X149562857Y-122702380D01*
X149658095Y-122750000D01*
X149705714Y-122797619D01*
X149753333Y-122892857D01*
X149753333Y-123035714D01*
X149705714Y-123130952D01*
X149658095Y-123178571D01*
X149562857Y-123226190D01*
X149181904Y-123226190D01*
X150134285Y-122797619D02*
X150181904Y-122750000D01*
X150277142Y-122702380D01*
X150515238Y-122702380D01*
X150610476Y-122750000D01*
X150658095Y-122797619D01*
X150705714Y-122892857D01*
X150705714Y-122988095D01*
X150658095Y-123130952D01*
X150086666Y-123702380D01*
X150705714Y-123702380D01*
%TO.C,C1*%
X118273333Y-122267142D02*
X118225714Y-122314761D01*
X118082857Y-122362380D01*
X117987619Y-122362380D01*
X117844761Y-122314761D01*
X117749523Y-122219523D01*
X117701904Y-122124285D01*
X117654285Y-121933809D01*
X117654285Y-121790952D01*
X117701904Y-121600476D01*
X117749523Y-121505238D01*
X117844761Y-121410000D01*
X117987619Y-121362380D01*
X118082857Y-121362380D01*
X118225714Y-121410000D01*
X118273333Y-121457619D01*
X119225714Y-122362380D02*
X118654285Y-122362380D01*
X118940000Y-122362380D02*
X118940000Y-121362380D01*
X118844761Y-121505238D01*
X118749523Y-121600476D01*
X118654285Y-121648095D01*
%TO.C,C34*%
X132217142Y-126027142D02*
X132169523Y-126074761D01*
X132026666Y-126122380D01*
X131931428Y-126122380D01*
X131788571Y-126074761D01*
X131693333Y-125979523D01*
X131645714Y-125884285D01*
X131598095Y-125693809D01*
X131598095Y-125550952D01*
X131645714Y-125360476D01*
X131693333Y-125265238D01*
X131788571Y-125170000D01*
X131931428Y-125122380D01*
X132026666Y-125122380D01*
X132169523Y-125170000D01*
X132217142Y-125217619D01*
X132550476Y-125122380D02*
X133169523Y-125122380D01*
X132836190Y-125503333D01*
X132979047Y-125503333D01*
X133074285Y-125550952D01*
X133121904Y-125598571D01*
X133169523Y-125693809D01*
X133169523Y-125931904D01*
X133121904Y-126027142D01*
X133074285Y-126074761D01*
X132979047Y-126122380D01*
X132693333Y-126122380D01*
X132598095Y-126074761D01*
X132550476Y-126027142D01*
X134026666Y-125455714D02*
X134026666Y-126122380D01*
X133788571Y-125074761D02*
X133550476Y-125789047D01*
X134169523Y-125789047D01*
%TO.C,C33*%
X151107142Y-131517142D02*
X151059523Y-131564761D01*
X150916666Y-131612380D01*
X150821428Y-131612380D01*
X150678571Y-131564761D01*
X150583333Y-131469523D01*
X150535714Y-131374285D01*
X150488095Y-131183809D01*
X150488095Y-131040952D01*
X150535714Y-130850476D01*
X150583333Y-130755238D01*
X150678571Y-130660000D01*
X150821428Y-130612380D01*
X150916666Y-130612380D01*
X151059523Y-130660000D01*
X151107142Y-130707619D01*
X151440476Y-130612380D02*
X152059523Y-130612380D01*
X151726190Y-130993333D01*
X151869047Y-130993333D01*
X151964285Y-131040952D01*
X152011904Y-131088571D01*
X152059523Y-131183809D01*
X152059523Y-131421904D01*
X152011904Y-131517142D01*
X151964285Y-131564761D01*
X151869047Y-131612380D01*
X151583333Y-131612380D01*
X151488095Y-131564761D01*
X151440476Y-131517142D01*
X152392857Y-130612380D02*
X153011904Y-130612380D01*
X152678571Y-130993333D01*
X152821428Y-130993333D01*
X152916666Y-131040952D01*
X152964285Y-131088571D01*
X153011904Y-131183809D01*
X153011904Y-131421904D01*
X152964285Y-131517142D01*
X152916666Y-131564761D01*
X152821428Y-131612380D01*
X152535714Y-131612380D01*
X152440476Y-131564761D01*
X152392857Y-131517142D01*
%TO.C,C32*%
X114727142Y-128612857D02*
X114774761Y-128660476D01*
X114822380Y-128803333D01*
X114822380Y-128898571D01*
X114774761Y-129041428D01*
X114679523Y-129136666D01*
X114584285Y-129184285D01*
X114393809Y-129231904D01*
X114250952Y-129231904D01*
X114060476Y-129184285D01*
X113965238Y-129136666D01*
X113870000Y-129041428D01*
X113822380Y-128898571D01*
X113822380Y-128803333D01*
X113870000Y-128660476D01*
X113917619Y-128612857D01*
X113822380Y-128279523D02*
X113822380Y-127660476D01*
X114203333Y-127993809D01*
X114203333Y-127850952D01*
X114250952Y-127755714D01*
X114298571Y-127708095D01*
X114393809Y-127660476D01*
X114631904Y-127660476D01*
X114727142Y-127708095D01*
X114774761Y-127755714D01*
X114822380Y-127850952D01*
X114822380Y-128136666D01*
X114774761Y-128231904D01*
X114727142Y-128279523D01*
X113917619Y-127279523D02*
X113870000Y-127231904D01*
X113822380Y-127136666D01*
X113822380Y-126898571D01*
X113870000Y-126803333D01*
X113917619Y-126755714D01*
X114012857Y-126708095D01*
X114108095Y-126708095D01*
X114250952Y-126755714D01*
X114822380Y-127327142D01*
X114822380Y-126708095D01*
%TO.C,R14*%
X181247142Y-123032380D02*
X180913809Y-122556190D01*
X180675714Y-123032380D02*
X180675714Y-122032380D01*
X181056666Y-122032380D01*
X181151904Y-122080000D01*
X181199523Y-122127619D01*
X181247142Y-122222857D01*
X181247142Y-122365714D01*
X181199523Y-122460952D01*
X181151904Y-122508571D01*
X181056666Y-122556190D01*
X180675714Y-122556190D01*
X182199523Y-123032380D02*
X181628095Y-123032380D01*
X181913809Y-123032380D02*
X181913809Y-122032380D01*
X181818571Y-122175238D01*
X181723333Y-122270476D01*
X181628095Y-122318095D01*
X183056666Y-122365714D02*
X183056666Y-123032380D01*
X182818571Y-121984761D02*
X182580476Y-122699047D01*
X183199523Y-122699047D01*
%TO.C,C31*%
X189177142Y-120122857D02*
X189224761Y-120170476D01*
X189272380Y-120313333D01*
X189272380Y-120408571D01*
X189224761Y-120551428D01*
X189129523Y-120646666D01*
X189034285Y-120694285D01*
X188843809Y-120741904D01*
X188700952Y-120741904D01*
X188510476Y-120694285D01*
X188415238Y-120646666D01*
X188320000Y-120551428D01*
X188272380Y-120408571D01*
X188272380Y-120313333D01*
X188320000Y-120170476D01*
X188367619Y-120122857D01*
X188272380Y-119789523D02*
X188272380Y-119170476D01*
X188653333Y-119503809D01*
X188653333Y-119360952D01*
X188700952Y-119265714D01*
X188748571Y-119218095D01*
X188843809Y-119170476D01*
X189081904Y-119170476D01*
X189177142Y-119218095D01*
X189224761Y-119265714D01*
X189272380Y-119360952D01*
X189272380Y-119646666D01*
X189224761Y-119741904D01*
X189177142Y-119789523D01*
X189272380Y-118218095D02*
X189272380Y-118789523D01*
X189272380Y-118503809D02*
X188272380Y-118503809D01*
X188415238Y-118599047D01*
X188510476Y-118694285D01*
X188558095Y-118789523D01*
%TO.C,C27*%
X157867142Y-120417142D02*
X157819523Y-120464761D01*
X157676666Y-120512380D01*
X157581428Y-120512380D01*
X157438571Y-120464761D01*
X157343333Y-120369523D01*
X157295714Y-120274285D01*
X157248095Y-120083809D01*
X157248095Y-119940952D01*
X157295714Y-119750476D01*
X157343333Y-119655238D01*
X157438571Y-119560000D01*
X157581428Y-119512380D01*
X157676666Y-119512380D01*
X157819523Y-119560000D01*
X157867142Y-119607619D01*
X158248095Y-119607619D02*
X158295714Y-119560000D01*
X158390952Y-119512380D01*
X158629047Y-119512380D01*
X158724285Y-119560000D01*
X158771904Y-119607619D01*
X158819523Y-119702857D01*
X158819523Y-119798095D01*
X158771904Y-119940952D01*
X158200476Y-120512380D01*
X158819523Y-120512380D01*
X159152857Y-119512380D02*
X159819523Y-119512380D01*
X159390952Y-120512380D01*
%TO.C,C26*%
X166917142Y-129582857D02*
X166964761Y-129630476D01*
X167012380Y-129773333D01*
X167012380Y-129868571D01*
X166964761Y-130011428D01*
X166869523Y-130106666D01*
X166774285Y-130154285D01*
X166583809Y-130201904D01*
X166440952Y-130201904D01*
X166250476Y-130154285D01*
X166155238Y-130106666D01*
X166060000Y-130011428D01*
X166012380Y-129868571D01*
X166012380Y-129773333D01*
X166060000Y-129630476D01*
X166107619Y-129582857D01*
X166107619Y-129201904D02*
X166060000Y-129154285D01*
X166012380Y-129059047D01*
X166012380Y-128820952D01*
X166060000Y-128725714D01*
X166107619Y-128678095D01*
X166202857Y-128630476D01*
X166298095Y-128630476D01*
X166440952Y-128678095D01*
X167012380Y-129249523D01*
X167012380Y-128630476D01*
X166012380Y-127773333D02*
X166012380Y-127963809D01*
X166060000Y-128059047D01*
X166107619Y-128106666D01*
X166250476Y-128201904D01*
X166440952Y-128249523D01*
X166821904Y-128249523D01*
X166917142Y-128201904D01*
X166964761Y-128154285D01*
X167012380Y-128059047D01*
X167012380Y-127868571D01*
X166964761Y-127773333D01*
X166917142Y-127725714D01*
X166821904Y-127678095D01*
X166583809Y-127678095D01*
X166488571Y-127725714D01*
X166440952Y-127773333D01*
X166393333Y-127868571D01*
X166393333Y-128059047D01*
X166440952Y-128154285D01*
X166488571Y-128201904D01*
X166583809Y-128249523D01*
%TO.C,C25*%
X126557142Y-141892857D02*
X126604761Y-141940476D01*
X126652380Y-142083333D01*
X126652380Y-142178571D01*
X126604761Y-142321428D01*
X126509523Y-142416666D01*
X126414285Y-142464285D01*
X126223809Y-142511904D01*
X126080952Y-142511904D01*
X125890476Y-142464285D01*
X125795238Y-142416666D01*
X125700000Y-142321428D01*
X125652380Y-142178571D01*
X125652380Y-142083333D01*
X125700000Y-141940476D01*
X125747619Y-141892857D01*
X125747619Y-141511904D02*
X125700000Y-141464285D01*
X125652380Y-141369047D01*
X125652380Y-141130952D01*
X125700000Y-141035714D01*
X125747619Y-140988095D01*
X125842857Y-140940476D01*
X125938095Y-140940476D01*
X126080952Y-140988095D01*
X126652380Y-141559523D01*
X126652380Y-140940476D01*
X125652380Y-140035714D02*
X125652380Y-140511904D01*
X126128571Y-140559523D01*
X126080952Y-140511904D01*
X126033333Y-140416666D01*
X126033333Y-140178571D01*
X126080952Y-140083333D01*
X126128571Y-140035714D01*
X126223809Y-139988095D01*
X126461904Y-139988095D01*
X126557142Y-140035714D01*
X126604761Y-140083333D01*
X126652380Y-140178571D01*
X126652380Y-140416666D01*
X126604761Y-140511904D01*
X126557142Y-140559523D01*
%TO.C,C24*%
X124897142Y-141832857D02*
X124944761Y-141880476D01*
X124992380Y-142023333D01*
X124992380Y-142118571D01*
X124944761Y-142261428D01*
X124849523Y-142356666D01*
X124754285Y-142404285D01*
X124563809Y-142451904D01*
X124420952Y-142451904D01*
X124230476Y-142404285D01*
X124135238Y-142356666D01*
X124040000Y-142261428D01*
X123992380Y-142118571D01*
X123992380Y-142023333D01*
X124040000Y-141880476D01*
X124087619Y-141832857D01*
X124087619Y-141451904D02*
X124040000Y-141404285D01*
X123992380Y-141309047D01*
X123992380Y-141070952D01*
X124040000Y-140975714D01*
X124087619Y-140928095D01*
X124182857Y-140880476D01*
X124278095Y-140880476D01*
X124420952Y-140928095D01*
X124992380Y-141499523D01*
X124992380Y-140880476D01*
X124325714Y-140023333D02*
X124992380Y-140023333D01*
X123944761Y-140261428D02*
X124659047Y-140499523D01*
X124659047Y-139880476D01*
%TO.C,C23*%
X123017142Y-141892857D02*
X123064761Y-141940476D01*
X123112380Y-142083333D01*
X123112380Y-142178571D01*
X123064761Y-142321428D01*
X122969523Y-142416666D01*
X122874285Y-142464285D01*
X122683809Y-142511904D01*
X122540952Y-142511904D01*
X122350476Y-142464285D01*
X122255238Y-142416666D01*
X122160000Y-142321428D01*
X122112380Y-142178571D01*
X122112380Y-142083333D01*
X122160000Y-141940476D01*
X122207619Y-141892857D01*
X122207619Y-141511904D02*
X122160000Y-141464285D01*
X122112380Y-141369047D01*
X122112380Y-141130952D01*
X122160000Y-141035714D01*
X122207619Y-140988095D01*
X122302857Y-140940476D01*
X122398095Y-140940476D01*
X122540952Y-140988095D01*
X123112380Y-141559523D01*
X123112380Y-140940476D01*
X122112380Y-140607142D02*
X122112380Y-139988095D01*
X122493333Y-140321428D01*
X122493333Y-140178571D01*
X122540952Y-140083333D01*
X122588571Y-140035714D01*
X122683809Y-139988095D01*
X122921904Y-139988095D01*
X123017142Y-140035714D01*
X123064761Y-140083333D01*
X123112380Y-140178571D01*
X123112380Y-140464285D01*
X123064761Y-140559523D01*
X123017142Y-140607142D01*
%TO.C,X2*%
X109952380Y-133019523D02*
X110952380Y-132352857D01*
X109952380Y-132352857D02*
X110952380Y-133019523D01*
X110047619Y-132019523D02*
X110000000Y-131971904D01*
X109952380Y-131876666D01*
X109952380Y-131638571D01*
X110000000Y-131543333D01*
X110047619Y-131495714D01*
X110142857Y-131448095D01*
X110238095Y-131448095D01*
X110380952Y-131495714D01*
X110952380Y-132067142D01*
X110952380Y-131448095D01*
%TO.C,U4*%
X102882095Y-130202380D02*
X102882095Y-131011904D01*
X102929714Y-131107142D01*
X102977333Y-131154761D01*
X103072571Y-131202380D01*
X103263047Y-131202380D01*
X103358285Y-131154761D01*
X103405904Y-131107142D01*
X103453523Y-131011904D01*
X103453523Y-130202380D01*
X104358285Y-130535714D02*
X104358285Y-131202380D01*
X104120190Y-130154761D02*
X103882095Y-130869047D01*
X104501142Y-130869047D01*
%TO.C,R10*%
X128187142Y-138822380D02*
X127853809Y-138346190D01*
X127615714Y-138822380D02*
X127615714Y-137822380D01*
X127996666Y-137822380D01*
X128091904Y-137870000D01*
X128139523Y-137917619D01*
X128187142Y-138012857D01*
X128187142Y-138155714D01*
X128139523Y-138250952D01*
X128091904Y-138298571D01*
X127996666Y-138346190D01*
X127615714Y-138346190D01*
X129139523Y-138822380D02*
X128568095Y-138822380D01*
X128853809Y-138822380D02*
X128853809Y-137822380D01*
X128758571Y-137965238D01*
X128663333Y-138060476D01*
X128568095Y-138108095D01*
X129758571Y-137822380D02*
X129853809Y-137822380D01*
X129949047Y-137870000D01*
X129996666Y-137917619D01*
X130044285Y-138012857D01*
X130091904Y-138203333D01*
X130091904Y-138441428D01*
X130044285Y-138631904D01*
X129996666Y-138727142D01*
X129949047Y-138774761D01*
X129853809Y-138822380D01*
X129758571Y-138822380D01*
X129663333Y-138774761D01*
X129615714Y-138727142D01*
X129568095Y-138631904D01*
X129520476Y-138441428D01*
X129520476Y-138203333D01*
X129568095Y-138012857D01*
X129615714Y-137917619D01*
X129663333Y-137870000D01*
X129758571Y-137822380D01*
%TO.C,R9*%
X129243333Y-136402380D02*
X128910000Y-135926190D01*
X128671904Y-136402380D02*
X128671904Y-135402380D01*
X129052857Y-135402380D01*
X129148095Y-135450000D01*
X129195714Y-135497619D01*
X129243333Y-135592857D01*
X129243333Y-135735714D01*
X129195714Y-135830952D01*
X129148095Y-135878571D01*
X129052857Y-135926190D01*
X128671904Y-135926190D01*
X129719523Y-136402380D02*
X129910000Y-136402380D01*
X130005238Y-136354761D01*
X130052857Y-136307142D01*
X130148095Y-136164285D01*
X130195714Y-135973809D01*
X130195714Y-135592857D01*
X130148095Y-135497619D01*
X130100476Y-135450000D01*
X130005238Y-135402380D01*
X129814761Y-135402380D01*
X129719523Y-135450000D01*
X129671904Y-135497619D01*
X129624285Y-135592857D01*
X129624285Y-135830952D01*
X129671904Y-135926190D01*
X129719523Y-135973809D01*
X129814761Y-136021428D01*
X130005238Y-136021428D01*
X130100476Y-135973809D01*
X130148095Y-135926190D01*
X130195714Y-135830952D01*
%TO.C,R8*%
X133813333Y-134742380D02*
X133480000Y-134266190D01*
X133241904Y-134742380D02*
X133241904Y-133742380D01*
X133622857Y-133742380D01*
X133718095Y-133790000D01*
X133765714Y-133837619D01*
X133813333Y-133932857D01*
X133813333Y-134075714D01*
X133765714Y-134170952D01*
X133718095Y-134218571D01*
X133622857Y-134266190D01*
X133241904Y-134266190D01*
X134384761Y-134170952D02*
X134289523Y-134123333D01*
X134241904Y-134075714D01*
X134194285Y-133980476D01*
X134194285Y-133932857D01*
X134241904Y-133837619D01*
X134289523Y-133790000D01*
X134384761Y-133742380D01*
X134575238Y-133742380D01*
X134670476Y-133790000D01*
X134718095Y-133837619D01*
X134765714Y-133932857D01*
X134765714Y-133980476D01*
X134718095Y-134075714D01*
X134670476Y-134123333D01*
X134575238Y-134170952D01*
X134384761Y-134170952D01*
X134289523Y-134218571D01*
X134241904Y-134266190D01*
X134194285Y-134361428D01*
X134194285Y-134551904D01*
X134241904Y-134647142D01*
X134289523Y-134694761D01*
X134384761Y-134742380D01*
X134575238Y-134742380D01*
X134670476Y-134694761D01*
X134718095Y-134647142D01*
X134765714Y-134551904D01*
X134765714Y-134361428D01*
X134718095Y-134266190D01*
X134670476Y-134218571D01*
X134575238Y-134170952D01*
%TO.C,R7*%
X133923333Y-136132380D02*
X133590000Y-135656190D01*
X133351904Y-136132380D02*
X133351904Y-135132380D01*
X133732857Y-135132380D01*
X133828095Y-135180000D01*
X133875714Y-135227619D01*
X133923333Y-135322857D01*
X133923333Y-135465714D01*
X133875714Y-135560952D01*
X133828095Y-135608571D01*
X133732857Y-135656190D01*
X133351904Y-135656190D01*
X134256666Y-135132380D02*
X134923333Y-135132380D01*
X134494761Y-136132380D01*
%TO.C,R6*%
X115993333Y-125802380D02*
X115660000Y-125326190D01*
X115421904Y-125802380D02*
X115421904Y-124802380D01*
X115802857Y-124802380D01*
X115898095Y-124850000D01*
X115945714Y-124897619D01*
X115993333Y-124992857D01*
X115993333Y-125135714D01*
X115945714Y-125230952D01*
X115898095Y-125278571D01*
X115802857Y-125326190D01*
X115421904Y-125326190D01*
X116850476Y-124802380D02*
X116660000Y-124802380D01*
X116564761Y-124850000D01*
X116517142Y-124897619D01*
X116421904Y-125040476D01*
X116374285Y-125230952D01*
X116374285Y-125611904D01*
X116421904Y-125707142D01*
X116469523Y-125754761D01*
X116564761Y-125802380D01*
X116755238Y-125802380D01*
X116850476Y-125754761D01*
X116898095Y-125707142D01*
X116945714Y-125611904D01*
X116945714Y-125373809D01*
X116898095Y-125278571D01*
X116850476Y-125230952D01*
X116755238Y-125183333D01*
X116564761Y-125183333D01*
X116469523Y-125230952D01*
X116421904Y-125278571D01*
X116374285Y-125373809D01*
%TO.C,R3*%
X116882380Y-136186666D02*
X116406190Y-136520000D01*
X116882380Y-136758095D02*
X115882380Y-136758095D01*
X115882380Y-136377142D01*
X115930000Y-136281904D01*
X115977619Y-136234285D01*
X116072857Y-136186666D01*
X116215714Y-136186666D01*
X116310952Y-136234285D01*
X116358571Y-136281904D01*
X116406190Y-136377142D01*
X116406190Y-136758095D01*
X115882380Y-135853333D02*
X115882380Y-135234285D01*
X116263333Y-135567619D01*
X116263333Y-135424761D01*
X116310952Y-135329523D01*
X116358571Y-135281904D01*
X116453809Y-135234285D01*
X116691904Y-135234285D01*
X116787142Y-135281904D01*
X116834761Y-135329523D01*
X116882380Y-135424761D01*
X116882380Y-135710476D01*
X116834761Y-135805714D01*
X116787142Y-135853333D01*
%TO.C,C22*%
X182747142Y-124307142D02*
X182699523Y-124354761D01*
X182556666Y-124402380D01*
X182461428Y-124402380D01*
X182318571Y-124354761D01*
X182223333Y-124259523D01*
X182175714Y-124164285D01*
X182128095Y-123973809D01*
X182128095Y-123830952D01*
X182175714Y-123640476D01*
X182223333Y-123545238D01*
X182318571Y-123450000D01*
X182461428Y-123402380D01*
X182556666Y-123402380D01*
X182699523Y-123450000D01*
X182747142Y-123497619D01*
X183128095Y-123497619D02*
X183175714Y-123450000D01*
X183270952Y-123402380D01*
X183509047Y-123402380D01*
X183604285Y-123450000D01*
X183651904Y-123497619D01*
X183699523Y-123592857D01*
X183699523Y-123688095D01*
X183651904Y-123830952D01*
X183080476Y-124402380D01*
X183699523Y-124402380D01*
X184080476Y-123497619D02*
X184128095Y-123450000D01*
X184223333Y-123402380D01*
X184461428Y-123402380D01*
X184556666Y-123450000D01*
X184604285Y-123497619D01*
X184651904Y-123592857D01*
X184651904Y-123688095D01*
X184604285Y-123830952D01*
X184032857Y-124402380D01*
X184651904Y-124402380D01*
%TO.C,C20*%
X92657142Y-137837142D02*
X92609523Y-137884761D01*
X92466666Y-137932380D01*
X92371428Y-137932380D01*
X92228571Y-137884761D01*
X92133333Y-137789523D01*
X92085714Y-137694285D01*
X92038095Y-137503809D01*
X92038095Y-137360952D01*
X92085714Y-137170476D01*
X92133333Y-137075238D01*
X92228571Y-136980000D01*
X92371428Y-136932380D01*
X92466666Y-136932380D01*
X92609523Y-136980000D01*
X92657142Y-137027619D01*
X93038095Y-137027619D02*
X93085714Y-136980000D01*
X93180952Y-136932380D01*
X93419047Y-136932380D01*
X93514285Y-136980000D01*
X93561904Y-137027619D01*
X93609523Y-137122857D01*
X93609523Y-137218095D01*
X93561904Y-137360952D01*
X92990476Y-137932380D01*
X93609523Y-137932380D01*
X94228571Y-136932380D02*
X94323809Y-136932380D01*
X94419047Y-136980000D01*
X94466666Y-137027619D01*
X94514285Y-137122857D01*
X94561904Y-137313333D01*
X94561904Y-137551428D01*
X94514285Y-137741904D01*
X94466666Y-137837142D01*
X94419047Y-137884761D01*
X94323809Y-137932380D01*
X94228571Y-137932380D01*
X94133333Y-137884761D01*
X94085714Y-137837142D01*
X94038095Y-137741904D01*
X93990476Y-137551428D01*
X93990476Y-137313333D01*
X94038095Y-137122857D01*
X94085714Y-137027619D01*
X94133333Y-136980000D01*
X94228571Y-136932380D01*
%TO.C,C19*%
X108967142Y-129987142D02*
X108919523Y-130034761D01*
X108776666Y-130082380D01*
X108681428Y-130082380D01*
X108538571Y-130034761D01*
X108443333Y-129939523D01*
X108395714Y-129844285D01*
X108348095Y-129653809D01*
X108348095Y-129510952D01*
X108395714Y-129320476D01*
X108443333Y-129225238D01*
X108538571Y-129130000D01*
X108681428Y-129082380D01*
X108776666Y-129082380D01*
X108919523Y-129130000D01*
X108967142Y-129177619D01*
X109919523Y-130082380D02*
X109348095Y-130082380D01*
X109633809Y-130082380D02*
X109633809Y-129082380D01*
X109538571Y-129225238D01*
X109443333Y-129320476D01*
X109348095Y-129368095D01*
X110395714Y-130082380D02*
X110586190Y-130082380D01*
X110681428Y-130034761D01*
X110729047Y-129987142D01*
X110824285Y-129844285D01*
X110871904Y-129653809D01*
X110871904Y-129272857D01*
X110824285Y-129177619D01*
X110776666Y-129130000D01*
X110681428Y-129082380D01*
X110490952Y-129082380D01*
X110395714Y-129130000D01*
X110348095Y-129177619D01*
X110300476Y-129272857D01*
X110300476Y-129510952D01*
X110348095Y-129606190D01*
X110395714Y-129653809D01*
X110490952Y-129701428D01*
X110681428Y-129701428D01*
X110776666Y-129653809D01*
X110824285Y-129606190D01*
X110871904Y-129510952D01*
%TO.C,C18*%
X113017142Y-126357142D02*
X112969523Y-126404761D01*
X112826666Y-126452380D01*
X112731428Y-126452380D01*
X112588571Y-126404761D01*
X112493333Y-126309523D01*
X112445714Y-126214285D01*
X112398095Y-126023809D01*
X112398095Y-125880952D01*
X112445714Y-125690476D01*
X112493333Y-125595238D01*
X112588571Y-125500000D01*
X112731428Y-125452380D01*
X112826666Y-125452380D01*
X112969523Y-125500000D01*
X113017142Y-125547619D01*
X113969523Y-126452380D02*
X113398095Y-126452380D01*
X113683809Y-126452380D02*
X113683809Y-125452380D01*
X113588571Y-125595238D01*
X113493333Y-125690476D01*
X113398095Y-125738095D01*
X114540952Y-125880952D02*
X114445714Y-125833333D01*
X114398095Y-125785714D01*
X114350476Y-125690476D01*
X114350476Y-125642857D01*
X114398095Y-125547619D01*
X114445714Y-125500000D01*
X114540952Y-125452380D01*
X114731428Y-125452380D01*
X114826666Y-125500000D01*
X114874285Y-125547619D01*
X114921904Y-125642857D01*
X114921904Y-125690476D01*
X114874285Y-125785714D01*
X114826666Y-125833333D01*
X114731428Y-125880952D01*
X114540952Y-125880952D01*
X114445714Y-125928571D01*
X114398095Y-125976190D01*
X114350476Y-126071428D01*
X114350476Y-126261904D01*
X114398095Y-126357142D01*
X114445714Y-126404761D01*
X114540952Y-126452380D01*
X114731428Y-126452380D01*
X114826666Y-126404761D01*
X114874285Y-126357142D01*
X114921904Y-126261904D01*
X114921904Y-126071428D01*
X114874285Y-125976190D01*
X114826666Y-125928571D01*
X114731428Y-125880952D01*
%TO.C,J1*%
D16*
X150046666Y-152683523D02*
X150046666Y-153590666D01*
X149986190Y-153772095D01*
X149865238Y-153893047D01*
X149683809Y-153953523D01*
X149562857Y-153953523D01*
X151316666Y-153953523D02*
X150590952Y-153953523D01*
X150953809Y-153953523D02*
X150953809Y-152683523D01*
X150832857Y-152864952D01*
X150711904Y-152985904D01*
X150590952Y-153046380D01*
%TD*%
M02*
